<svg width="20" height="20" viewBox="0 0 20 20" fill="none" xmlns="http://www.w3.org/2000/svg">
<path d="M13.868 11.7345C12.9553 11.7345 12.6542 12.4287 12.5626 12.751H14.9992C14.9764 12.5721 14.9049 12.2575 14.6772 12.0282C14.4832 11.8336 14.2118 11.7345 13.868 11.7345V11.7345ZM7.60442 13.0311H5.29637V14.9981H7.47833C7.86745 14.9884 8.34955 14.8631 8.34955 14.0456C8.34955 13.0595 7.68068 13.0311 7.60442 13.0311V13.0311Z" fill="white"/>
<path d="M18.007 0H1.86297C1.44605 0.000108507 1.04014 0.133872 0.704842 0.381654C0.369541 0.629435 0.122505 0.978183 0 1.3767V18.6639C0.10257 18.9973 0.292615 19.2971 0.550354 19.532C0.808094 19.767 1.1241 19.9286 1.46549 20H18.4042C18.7358 19.9304 19.0435 19.7757 19.2971 19.5511C19.5507 19.3265 19.7414 19.0398 19.8505 18.7191V1.32159C19.7197 0.936384 19.4716 0.601799 19.141 0.364779C18.8104 0.127758 18.4138 0.000199097 18.007 0V0ZM11.9483 8.45476C11.9483 8.37766 12.0112 8.31503 12.088 8.31503H15.5576C15.6339 8.31503 15.697 8.37766 15.697 8.45476V9.49049C15.6969 9.52743 15.6822 9.56281 15.656 9.58893C15.6299 9.61505 15.5945 9.62979 15.5576 9.62994H12.088C12.051 9.62994 12.0155 9.61526 11.9893 9.58911C11.9631 9.56297 11.9484 9.5275 11.9483 9.49049V8.45476V8.45476ZM10.4747 14.1995C10.4747 15.5217 9.77523 16.1594 9.18737 16.4597C8.54689 16.7879 7.88304 16.8135 7.69432 16.8135H3.29005C3.25303 16.8132 3.21762 16.7983 3.19147 16.7721C3.16532 16.7459 3.15054 16.7105 3.15032 16.6735V8.26604C3.15032 8.18894 3.21378 8.12603 3.29005 8.12603H7.66593C9.2191 8.12603 10.1841 9.03734 10.1841 10.5051C10.1841 11.4141 9.74128 11.8503 9.35159 12.058C9.5682 12.1333 9.7632 12.2602 9.9197 12.4279C10.5304 13.0736 10.4781 14.1536 10.4747 14.1995V14.1995ZM16.9613 14.0729C16.9571 14.1066 16.9407 14.1375 16.9152 14.16C16.8897 14.1824 16.8569 14.1947 16.823 14.1945H12.6107C12.6411 14.6563 12.824 14.9895 13.1544 15.1863C13.4466 15.3597 13.7698 15.3786 13.8939 15.3786C13.9198 15.3786 13.936 15.3775 13.9379 15.377C14.4214 15.377 14.7646 15.2703 14.9669 15.0599C15.161 14.8578 15.1557 14.6293 15.1543 14.6196C15.1543 14.5812 15.1671 14.5441 15.1944 14.5163C15.2073 14.5026 15.223 14.4918 15.2403 14.4843C15.2576 14.4769 15.2763 14.4731 15.2951 14.4732H16.774C16.8513 14.4732 16.9143 14.5358 16.9143 14.6132C16.9143 16.8764 14.4974 16.9911 14.0114 16.9911C13.9337 16.9911 13.8895 16.9883 13.8895 16.9883H13.8881C12.797 16.9883 11.9433 16.6701 11.3576 16.0433C10.4399 15.0596 10.5237 13.6835 10.5279 13.6256C10.5279 13.6008 10.5318 12.7853 10.944 11.9577C11.3312 11.1859 12.1554 10.2651 13.8978 10.2651C14.8962 10.2651 15.6737 10.5719 16.2045 11.1764C17.1812 12.2901 16.9724 14.0005 16.9613 14.0729V14.0729Z" fill="white"/>
<path d="M8.05756 10.5936C8.05756 9.86736 7.62195 9.85901 7.60386 9.85901H5.29637V11.455H7.45133C7.7717 11.455 8.05756 11.3894 8.05756 10.5936V10.5936Z" fill="white"/>
</svg>
