<svg width="21" height="20" viewBox="0 0 21 20" fill="none" xmlns="http://www.w3.org/2000/svg">
<path fill-rule="evenodd" clip-rule="evenodd" d="M17.5508 0H4.15052C2.33691 0 0.850525 1.48639 0.850525 3.3V16.7C0.850525 18.5139 2.33691 20 4.15052 20H17.5508C19.3644 20 20.8505 18.5139 20.8505 16.7V3.3C20.8505 1.48639 19.3644 0 17.5508 0ZM16.9119 12.2172C16.8997 14.3419 15.1719 16.0819 13.043 16.0819H8.59664C6.46775 16.0819 4.72775 14.3419 4.72775 12.2172V7.70139C4.72775 5.57222 6.46775 3.82833 8.59664 3.82833H11.303C12.3019 3.94722 13.7555 4.80278 14.2916 5.94083C14.4391 6.26 14.5166 6.30917 14.6397 7.25472C14.7052 7.74194 14.738 8.10222 14.955 8.30278C15.2619 8.58111 16.4002 8.39278 16.6255 8.56889L16.7975 8.70389L16.8997 8.91695L16.9366 9.08889L16.9119 12.2172V12.2172Z" fill="white"/>
<path fill-rule="evenodd" clip-rule="evenodd" d="M8.6458 8.47082H10.7914C10.9877 8.47016 11.1758 8.39187 11.3147 8.25303C11.4535 8.11419 11.5318 7.92606 11.5325 7.72971C11.5317 7.53379 11.4532 7.34618 11.3143 7.20804C11.1753 7.06989 10.9873 6.99247 10.7914 6.99277H8.6458C8.4499 6.99247 8.26189 7.0699 8.123 7.20805C7.98412 7.34621 7.9057 7.53382 7.90497 7.72971C7.90555 7.92604 7.98379 8.11416 8.12258 8.25301C8.26138 8.39186 8.44948 8.47016 8.6458 8.47082V8.47082ZM13.0061 11.4228H8.6458C8.4499 11.4225 8.26189 11.4999 8.123 11.6381C7.98412 11.7762 7.9057 11.9638 7.90497 12.1597C7.90497 12.5605 8.23663 12.8964 8.6458 12.8964H13.0061C13.2011 12.8951 13.3878 12.8171 13.5257 12.6793C13.6636 12.5414 13.7417 12.3547 13.743 12.1597C13.7425 11.9644 13.6647 11.7773 13.5266 11.6392C13.3885 11.5011 13.2014 11.4233 13.0061 11.4228Z" fill="white"/>
</svg>
