<svg width="717" height="128" viewBox="0 0 717 128" fill="none" xmlns="http://www.w3.org/2000/svg">
<path d="M22.0168 128L4.01231 123.002L0 78H44.0875L40.0711 122.995L22.0168 128V128Z" fill="#264DE4"/>
<path d="M36.6325 120.129L40.0647 81.6792H22.0438V124.174L36.6325 120.129V120.129Z" fill="#2965F1"/>
<path d="M9.19803 98.3698L9.69263 103.889H22.0437V98.3698H9.19803ZM8.20398 87.1987L8.70567 92.718H22.0437V87.1987H8.20398V87.1987ZM22.0437 112.704L22.0196 112.71L15.8728 111.051L15.4798 106.649H9.93924L10.7124 115.315L22.0183 118.453L22.0437 118.446V112.704Z" fill="#EBEBEB"/>
<path d="M34.8542 98.3698L35.8505 87.1987H22.0247V92.718H29.8019L29.2996 98.3698H22.0247V103.889H28.8211L28.1803 111.047L22.0245 112.709V118.451L33.3394 115.315L33.4224 114.382L34.7196 99.8519L34.8542 98.3698V98.3698Z" fill="white"/>
<line x1="207.5" y1="106.026" x2="207.5" y2="30.9997" stroke="#285FEE" stroke-width="3" stroke-dasharray="10 10"/>
<circle cx="207.5" cy="106.5" r="17.3261" transform="rotate(-179.422 207.5 106.5)" fill="#285FEE"/>
<circle cx="172.5" cy="105.5" r="7.42547" transform="rotate(-179.422 172.5 105.5)" fill="#285FEE"/>
<circle cx="172.5" cy="105.5" r="7.42547" transform="rotate(-179.422 172.5 105.5)" fill="#285FEE"/>
<circle cx="147.5" cy="105.5" r="7.42547" transform="rotate(-179.422 147.5 105.5)" fill="#285FEE"/>
<circle cx="147.5" cy="105.5" r="7.42547" transform="rotate(-179.422 147.5 105.5)" fill="#285FEE"/>
<circle cx="122.5" cy="105.5" r="7.42547" transform="rotate(-179.422 122.5 105.5)" fill="#285FEE"/>
<circle cx="122.5" cy="105.5" r="7.42547" transform="rotate(-179.422 122.5 105.5)" fill="#285FEE"/>
<circle cx="97.4999" cy="105.5" r="7.42547" transform="rotate(-179.422 97.4999 105.5)" fill="#285FEE"/>
<circle cx="97.4999" cy="105.5" r="7.42547" transform="rotate(-179.422 97.4999 105.5)" fill="#285FEE"/>
<circle cx="72.4999" cy="105.5" r="7.42547" transform="rotate(-179.422 72.4999 105.5)" fill="#285FEE"/>
<circle cx="72.4999" cy="105.5" r="7.42547" transform="rotate(-179.422 72.4999 105.5)" fill="#285FEE"/>
<path d="M167.809 19H165.963L171.303 4.45455H173.122L178.463 19H176.616L172.269 6.75568H172.156L167.809 19ZM168.491 13.3182H175.934V14.8807H168.491V13.3182ZM188.228 10.5341L186.722 10.9602C186.628 10.7093 186.488 10.4654 186.303 10.2287C186.124 9.98722 185.877 9.78835 185.565 9.6321C185.252 9.47585 184.852 9.39773 184.365 9.39773C183.697 9.39773 183.141 9.55161 182.695 9.85938C182.255 10.1624 182.035 10.5483 182.035 11.017C182.035 11.4337 182.186 11.7628 182.49 12.0043C182.793 12.2457 183.266 12.447 183.91 12.608L185.529 13.0057C186.505 13.2424 187.231 13.6046 187.71 14.0923C188.188 14.5753 188.427 15.1979 188.427 15.9602C188.427 16.5852 188.247 17.1439 187.887 17.6364C187.532 18.1288 187.035 18.517 186.396 18.8011C185.757 19.0852 185.013 19.2273 184.166 19.2273C183.053 19.2273 182.132 18.9858 181.403 18.5028C180.674 18.0199 180.212 17.3144 180.018 16.3864L181.609 15.9886C181.76 16.5758 182.047 17.0161 182.468 17.3097C182.894 17.6032 183.451 17.75 184.137 17.75C184.919 17.75 185.539 17.5843 185.998 17.2528C186.462 16.9167 186.694 16.5142 186.694 16.0455C186.694 15.6667 186.561 15.3494 186.296 15.0938C186.031 14.8333 185.624 14.6392 185.075 14.5114L183.257 14.0852C182.258 13.8485 181.524 13.4815 181.055 12.9844C180.591 12.4825 180.359 11.8551 180.359 11.1023C180.359 10.4867 180.532 9.94223 180.877 9.46875C181.228 8.99527 181.704 8.62358 182.305 8.35369C182.911 8.08381 183.597 7.94886 184.365 7.94886C185.444 7.94886 186.292 8.18561 186.907 8.65909C187.527 9.13258 187.968 9.75758 188.228 10.5341ZM190.95 23.0909V8.09091H192.569V9.82386H192.768C192.891 9.63447 193.062 9.39299 193.28 9.09943C193.502 8.80114 193.819 8.53598 194.231 8.30398C194.648 8.06723 195.211 7.94886 195.922 7.94886C196.84 7.94886 197.65 8.1785 198.351 8.63778C199.051 9.09706 199.598 9.74811 199.991 10.5909C200.384 11.4337 200.581 12.428 200.581 13.5739C200.581 14.7292 200.384 15.7306 199.991 16.5781C199.598 17.4209 199.054 18.0743 198.358 18.5384C197.662 18.9976 196.859 19.2273 195.95 19.2273C195.249 19.2273 194.688 19.1113 194.267 18.8793C193.845 18.6425 193.521 18.375 193.294 18.0767C193.067 17.7737 192.891 17.5227 192.768 17.3239H192.626V23.0909H190.95ZM192.598 13.5455C192.598 14.3693 192.719 15.0961 192.96 15.7259C193.202 16.3509 193.554 16.8409 194.018 17.196C194.482 17.5464 195.05 17.7216 195.723 17.7216C196.424 17.7216 197.008 17.5369 197.477 17.1676C197.951 16.7936 198.306 16.2917 198.542 15.6619C198.784 15.0275 198.905 14.322 198.905 13.5455C198.905 12.7784 198.786 12.0871 198.55 11.4716C198.318 10.8513 197.965 10.3613 197.491 10.0014C197.023 9.63684 196.433 9.45455 195.723 9.45455C195.041 9.45455 194.468 9.62737 194.004 9.97301C193.54 10.3139 193.19 10.7921 192.953 11.4077C192.716 12.0185 192.598 12.7311 192.598 13.5455ZM203.138 19V8.09091H204.814V19H203.138ZM203.99 6.27273C203.663 6.27273 203.381 6.16146 203.145 5.93892C202.913 5.71638 202.797 5.44886 202.797 5.13636C202.797 4.82386 202.913 4.55634 203.145 4.33381C203.381 4.11127 203.663 4 203.99 4C204.317 4 204.596 4.11127 204.828 4.33381C205.065 4.55634 205.183 4.82386 205.183 5.13636C205.183 5.44886 205.065 5.71638 204.828 5.93892C204.596 6.16146 204.317 6.27273 203.99 6.27273ZM207.884 19V8.09091H209.503V9.73864H209.617C209.816 9.19886 210.175 8.76089 210.696 8.42472C211.217 8.08854 211.804 7.92045 212.458 7.92045C212.581 7.92045 212.735 7.92282 212.919 7.92756C213.104 7.93229 213.244 7.93939 213.338 7.94886V9.65341C213.281 9.6392 213.151 9.6179 212.948 9.58949C212.749 9.55634 212.538 9.53977 212.316 9.53977C211.785 9.53977 211.312 9.65104 210.895 9.87358C210.483 10.0914 210.156 10.3944 209.915 10.7827C209.678 11.1662 209.56 11.6042 209.56 12.0966V19H207.884ZM218.535 19.2557C217.844 19.2557 217.217 19.1255 216.653 18.8651C216.09 18.5999 215.642 18.2188 215.311 17.7216C214.979 17.2197 214.814 16.6136 214.814 15.9034C214.814 15.2784 214.937 14.7718 215.183 14.3835C215.429 13.9905 215.758 13.6828 216.17 13.4602C216.582 13.2377 217.037 13.072 217.534 12.9631C218.036 12.8494 218.54 12.7595 219.047 12.6932C219.71 12.608 220.247 12.544 220.659 12.5014C221.076 12.4541 221.379 12.3759 221.568 12.267C221.762 12.1581 221.859 11.9687 221.859 11.6989V11.642C221.859 10.9413 221.667 10.3968 221.284 10.0085C220.905 9.62027 220.33 9.42614 219.558 9.42614C218.758 9.42614 218.131 9.60133 217.676 9.9517C217.221 10.3021 216.902 10.6761 216.717 11.0739L215.126 10.5057C215.41 9.8428 215.789 9.3267 216.263 8.95739C216.741 8.58333 217.262 8.32292 217.825 8.17614C218.393 8.02462 218.952 7.94886 219.501 7.94886C219.852 7.94886 220.254 7.99148 220.709 8.0767C221.168 8.1572 221.611 8.32528 222.037 8.58097C222.468 8.83665 222.825 9.22254 223.109 9.73864C223.393 10.2547 223.535 10.946 223.535 11.8125V19H221.859V17.5227H221.774C221.66 17.7595 221.471 18.0128 221.206 18.2827C220.941 18.5526 220.588 18.7822 220.148 18.9716C219.707 19.161 219.17 19.2557 218.535 19.2557ZM218.791 17.75C219.454 17.75 220.013 17.6198 220.467 17.3594C220.926 17.099 221.272 16.7628 221.504 16.3509C221.741 15.9389 221.859 15.5057 221.859 15.0511V13.517C221.788 13.6023 221.632 13.6804 221.39 13.7514C221.154 13.8177 220.879 13.8769 220.567 13.929C220.259 13.9763 219.958 14.0189 219.665 14.0568C219.376 14.09 219.141 14.1184 218.961 14.142C218.526 14.1989 218.119 14.2912 217.74 14.419C217.366 14.5421 217.063 14.7292 216.831 14.9801C216.604 15.2263 216.49 15.5625 216.49 15.9886C216.49 16.571 216.705 17.0114 217.136 17.3097C217.572 17.6032 218.123 17.75 218.791 17.75ZM228.271 12.4375V19H226.595V8.09091H228.214V9.79545H228.356C228.612 9.24148 229 8.7964 229.521 8.46023C230.042 8.11932 230.714 7.94886 231.538 7.94886C232.276 7.94886 232.923 8.10038 233.477 8.40341C234.031 8.7017 234.462 9.15625 234.769 9.76705C235.077 10.3731 235.231 11.1402 235.231 12.0682V19H233.555V12.1818C233.555 11.3248 233.332 10.6572 232.887 10.179C232.442 9.69602 231.831 9.45455 231.055 9.45455C230.52 9.45455 230.042 9.57055 229.62 9.80256C229.204 10.0346 228.874 10.3731 228.633 10.8182C228.392 11.2633 228.271 11.803 228.271 12.4375ZM243.038 8.09091V9.51136H237.385V8.09091H243.038ZM239.032 5.47727H240.709V15.875C240.709 16.3485 240.777 16.7036 240.915 16.9403C241.057 17.1723 241.237 17.3286 241.454 17.4091C241.677 17.4848 241.911 17.5227 242.157 17.5227C242.342 17.5227 242.494 17.5133 242.612 17.4943C242.73 17.4706 242.825 17.4517 242.896 17.4375L243.237 18.9432C243.123 18.9858 242.965 19.0284 242.761 19.071C242.558 19.1184 242.3 19.142 241.987 19.142C241.514 19.142 241.05 19.0402 240.595 18.8366C240.145 18.633 239.771 18.3229 239.473 17.9062C239.179 17.4896 239.032 16.964 239.032 16.3295V5.47727ZM250.016 19.2273C248.965 19.2273 248.058 18.9953 247.296 18.5312C246.538 18.0625 245.954 17.4091 245.542 16.571C245.135 15.7282 244.931 14.7481 244.931 13.6307C244.931 12.5133 245.135 11.5284 245.542 10.6761C245.954 9.81913 246.527 9.15152 247.26 8.6733C247.999 8.19034 248.861 7.94886 249.846 7.94886C250.414 7.94886 250.975 8.04356 251.529 8.23295C252.083 8.42235 252.587 8.73011 253.042 9.15625C253.496 9.57765 253.858 10.1364 254.128 10.8324C254.398 11.5284 254.533 12.3854 254.533 13.4034V14.1136H246.124V12.6648H252.829C252.829 12.0492 252.706 11.5 252.459 11.017C252.218 10.5341 251.872 10.1529 251.422 9.87358C250.977 9.59422 250.452 9.45455 249.846 9.45455C249.178 9.45455 248.6 9.62026 248.113 9.9517C247.63 10.2784 247.258 10.7045 246.998 11.2301C246.737 11.7557 246.607 12.3191 246.607 12.9205V13.8864C246.607 14.7102 246.749 15.4086 247.033 15.9815C247.322 16.5497 247.722 16.983 248.233 17.2812C248.745 17.5748 249.339 17.7216 250.016 17.7216C250.456 17.7216 250.854 17.66 251.209 17.5369C251.569 17.4091 251.879 17.2197 252.14 16.9688C252.4 16.7131 252.601 16.3958 252.743 16.017L254.363 16.4716C254.192 17.0208 253.906 17.5038 253.503 17.9205C253.101 18.3324 252.604 18.6544 252.012 18.8864C251.42 19.1136 250.755 19.2273 250.016 19.2273Z" fill="#264DE4"/>
<line x1="377.5" y1="106.027" x2="377.5" y2="31.0002" stroke="#285FEE" stroke-width="3" stroke-dasharray="10 10"/>
<circle cx="377.5" cy="106.5" r="17.3261" transform="rotate(-179.422 377.5 106.5)" fill="#285FEE"/>
<circle cx="242.5" cy="105.5" r="7.42547" transform="rotate(-179.422 242.5 105.5)" fill="#285FEE"/>
<circle cx="267.5" cy="105.5" r="7.42547" transform="rotate(-179.422 267.5 105.5)" fill="#285FEE"/>
<circle cx="267.5" cy="105.5" r="7.42547" transform="rotate(-179.422 267.5 105.5)" fill="#285FEE"/>
<circle cx="292.5" cy="105.5" r="7.42547" transform="rotate(-179.422 292.5 105.5)" fill="#285FEE"/>
<circle cx="292.5" cy="105.5" r="7.42547" transform="rotate(-179.422 292.5 105.5)" fill="#285FEE"/>
<circle cx="317.5" cy="105.5" r="7.42547" transform="rotate(-179.422 317.5 105.5)" fill="#285FEE"/>
<circle cx="317.5" cy="105.5" r="7.42547" transform="rotate(-179.422 317.5 105.5)" fill="#285FEE"/>
<circle cx="342.5" cy="105.5" r="7.42547" transform="rotate(-179.422 342.5 105.5)" fill="#285FEE"/>
<circle cx="342.5" cy="105.5" r="7.42547" transform="rotate(-179.422 342.5 105.5)" fill="#285FEE"/>
<path d="M340.816 4.45455V19H339.054V4.45455H340.816ZM345.796 12.4375V19H344.12V8.09091H345.739V9.79545H345.881C346.137 9.24148 346.525 8.7964 347.046 8.46023C347.567 8.11932 348.239 7.94886 349.063 7.94886C349.802 7.94886 350.448 8.10038 351.002 8.40341C351.556 8.7017 351.987 9.15625 352.295 9.76705C352.603 10.3731 352.756 11.1402 352.756 12.0682V19H351.08V12.1818C351.08 11.3248 350.858 10.6572 350.413 10.179C349.968 9.69602 349.357 9.45455 348.58 9.45455C348.045 9.45455 347.567 9.57055 347.146 9.80256C346.729 10.0346 346.4 10.3731 346.158 10.8182C345.917 11.2633 345.796 11.803 345.796 12.4375ZM355.819 19V8.09091H357.495V19H355.819ZM356.672 6.27273C356.345 6.27273 356.063 6.16146 355.826 5.93892C355.594 5.71638 355.478 5.44886 355.478 5.13636C355.478 4.82386 355.594 4.55634 355.826 4.33381C356.063 4.11127 356.345 4 356.672 4C356.998 4 357.278 4.11127 357.51 4.33381C357.746 4.55634 357.865 4.82386 357.865 5.13636C357.865 5.44886 357.746 5.71638 357.51 5.93892C357.278 6.16146 356.998 6.27273 356.672 6.27273ZM364.997 19.2273C363.974 19.2273 363.094 18.9858 362.355 18.5028C361.616 18.0199 361.048 17.3546 360.651 16.5071C360.253 15.6596 360.054 14.6913 360.054 13.6023C360.054 12.4943 360.258 11.5166 360.665 10.669C361.077 9.81676 361.65 9.15152 362.384 8.6733C363.122 8.19034 363.984 7.94886 364.969 7.94886C365.736 7.94886 366.427 8.09091 367.043 8.375C367.658 8.65909 368.162 9.05682 368.555 9.56818C368.948 10.0795 369.192 10.6761 369.287 11.358H367.611C367.483 10.8608 367.199 10.4205 366.759 10.0369C366.323 9.64867 365.736 9.45455 364.997 9.45455C364.344 9.45455 363.771 9.625 363.278 9.96591C362.791 10.3021 362.41 10.7779 362.135 11.3935C361.865 12.0043 361.73 12.7216 361.73 13.5455C361.73 14.3883 361.863 15.1222 362.128 15.7472C362.398 16.3722 362.777 16.8575 363.264 17.2031C363.757 17.5488 364.334 17.7216 364.997 17.7216C365.433 17.7216 365.828 17.6458 366.183 17.4943C366.538 17.3428 366.839 17.125 367.085 16.8409C367.331 16.5568 367.507 16.2159 367.611 15.8182H369.287C369.192 16.4621 368.958 17.0421 368.584 17.5582C368.214 18.0696 367.724 18.4768 367.114 18.7798C366.508 19.0781 365.802 19.2273 364.997 19.2273ZM371.737 19V8.09091H373.413V19H371.737ZM372.589 6.27273C372.263 6.27273 371.981 6.16146 371.744 5.93892C371.512 5.71638 371.396 5.44886 371.396 5.13636C371.396 4.82386 371.512 4.55634 371.744 4.33381C371.981 4.11127 372.263 4 372.589 4C372.916 4 373.196 4.11127 373.428 4.33381C373.664 4.55634 373.783 4.82386 373.783 5.13636C373.783 5.44886 373.664 5.71638 373.428 5.93892C373.196 6.16146 372.916 6.27273 372.589 6.27273ZM379.694 19.2557C379.002 19.2557 378.375 19.1255 377.811 18.8651C377.248 18.5999 376.801 18.2188 376.469 17.7216C376.138 17.2197 375.972 16.6136 375.972 15.9034C375.972 15.2784 376.095 14.7718 376.341 14.3835C376.587 13.9905 376.917 13.6828 377.328 13.4602C377.74 13.2377 378.195 13.072 378.692 12.9631C379.194 12.8494 379.698 12.7595 380.205 12.6932C380.868 12.608 381.405 12.544 381.817 12.5014C382.234 12.4541 382.537 12.3759 382.726 12.267C382.92 12.1581 383.017 11.9687 383.017 11.6989V11.642C383.017 10.9413 382.826 10.3968 382.442 10.0085C382.063 9.62027 381.488 9.42614 380.716 9.42614C379.916 9.42614 379.289 9.60133 378.834 9.9517C378.38 10.3021 378.06 10.6761 377.875 11.0739L376.284 10.5057C376.569 9.8428 376.947 9.3267 377.421 8.95739C377.899 8.58333 378.42 8.32292 378.983 8.17614C379.551 8.02462 380.11 7.94886 380.659 7.94886C381.01 7.94886 381.412 7.99148 381.867 8.0767C382.326 8.1572 382.769 8.32528 383.195 8.58097C383.626 8.83665 383.983 9.22254 384.267 9.73864C384.551 10.2547 384.694 10.946 384.694 11.8125V19H383.017V17.5227H382.932C382.819 17.7595 382.629 18.0128 382.364 18.2827C382.099 18.5526 381.746 18.7822 381.306 18.9716C380.865 19.161 380.328 19.2557 379.694 19.2557ZM379.949 17.75C380.612 17.75 381.171 17.6198 381.625 17.3594C382.085 17.099 382.43 16.7628 382.662 16.3509C382.899 15.9389 383.017 15.5057 383.017 15.0511V13.517C382.946 13.6023 382.79 13.6804 382.549 13.7514C382.312 13.8177 382.037 13.8769 381.725 13.929C381.417 13.9763 381.116 14.0189 380.823 14.0568C380.534 14.09 380.3 14.1184 380.12 14.142C379.684 14.1989 379.277 14.2912 378.898 14.419C378.524 14.5421 378.221 14.7292 377.989 14.9801C377.762 15.2263 377.648 15.5625 377.648 15.9886C377.648 16.571 377.864 17.0114 378.294 17.3097C378.73 17.6032 379.282 17.75 379.949 17.75ZM389.429 12.4375V19H387.753V8.09091H389.372V9.79545H389.514C389.77 9.24148 390.158 8.7964 390.679 8.46023C391.2 8.11932 391.872 7.94886 392.696 7.94886C393.435 7.94886 394.081 8.10038 394.635 8.40341C395.189 8.7017 395.62 9.15625 395.928 9.76705C396.235 10.3731 396.389 11.1402 396.389 12.0682V19H394.713V12.1818C394.713 11.3248 394.491 10.6572 394.045 10.179C393.6 9.69602 392.99 9.45455 392.213 9.45455C391.678 9.45455 391.2 9.57055 390.778 9.80256C390.362 10.0346 390.033 10.3731 389.791 10.8182C389.55 11.2633 389.429 11.803 389.429 12.4375ZM404.196 8.09091V9.51136H398.543V8.09091H404.196ZM400.191 5.47727H401.867V15.875C401.867 16.3485 401.935 16.7036 402.073 16.9403C402.215 17.1723 402.395 17.3286 402.613 17.4091C402.835 17.4848 403.069 17.5227 403.316 17.5227C403.5 17.5227 403.652 17.5133 403.77 17.4943C403.889 17.4706 403.983 17.4517 404.054 17.4375L404.395 18.9432C404.282 18.9858 404.123 19.0284 403.919 19.071C403.716 19.1184 403.458 19.142 403.145 19.142C402.672 19.142 402.208 19.0402 401.753 18.8366C401.303 18.633 400.929 18.3229 400.631 17.9062C400.337 17.4896 400.191 16.964 400.191 16.3295V5.47727ZM411.174 19.2273C410.123 19.2273 409.217 18.9953 408.454 18.5312C407.697 18.0625 407.112 17.4091 406.7 16.571C406.293 15.7282 406.089 14.7481 406.089 13.6307C406.089 12.5133 406.293 11.5284 406.7 10.6761C407.112 9.81913 407.685 9.15152 408.419 8.6733C409.157 8.19034 410.019 7.94886 411.004 7.94886C411.572 7.94886 412.133 8.04356 412.687 8.23295C413.241 8.42235 413.745 8.73011 414.2 9.15625C414.654 9.57765 415.017 10.1364 415.287 10.8324C415.556 11.5284 415.691 12.3854 415.691 13.4034V14.1136H407.282V12.6648H413.987C413.987 12.0492 413.864 11.5 413.618 11.017C413.376 10.5341 413.03 10.1529 412.581 9.87358C412.136 9.59422 411.61 9.45455 411.004 9.45455C410.336 9.45455 409.759 9.62026 409.271 9.9517C408.788 10.2784 408.416 10.7045 408.156 11.2301C407.895 11.7557 407.765 12.3191 407.765 12.9205V13.8864C407.765 14.7102 407.907 15.4086 408.191 15.9815C408.48 16.5497 408.88 16.983 409.392 17.2812C409.903 17.5748 410.497 17.7216 411.174 17.7216C411.615 17.7216 412.012 17.66 412.368 17.5369C412.727 17.4091 413.038 17.2197 413.298 16.9688C413.558 16.7131 413.76 16.3958 413.902 16.017L415.521 16.4716C415.35 17.0208 415.064 17.5038 414.662 17.9205C414.259 18.3324 413.762 18.6544 413.17 18.8864C412.578 19.1136 411.913 19.2273 411.174 19.2273Z" fill="#264DE4"/>
<line x1="547.5" y1="106.027" x2="547.5" y2="31.0002" stroke="#285FEE" stroke-width="3" stroke-dasharray="10 10"/>
<circle cx="547.5" cy="106.5" r="17.3261" transform="rotate(-179.422 547.5 106.5)" fill="#285FEE"/>
<circle cx="412.5" cy="105.5" r="7.42547" transform="rotate(-179.422 412.5 105.5)" fill="#285FEE"/>
<circle cx="487.5" cy="105.5" r="7.42547" transform="rotate(-179.422 487.5 105.5)" fill="#285FEE"/>
<circle cx="487.5" cy="105.5" r="7.42547" transform="rotate(-179.422 487.5 105.5)" fill="#285FEE"/>
<circle cx="512.5" cy="105.5" r="7.42547" transform="rotate(-179.422 512.5 105.5)" fill="#285FEE"/>
<circle cx="512.5" cy="105.5" r="7.42547" transform="rotate(-179.422 512.5 105.5)" fill="#285FEE"/>
<circle cx="437.5" cy="105.5" r="7.42547" transform="rotate(-179.422 437.5 105.5)" fill="#285FEE"/>
<circle cx="437.5" cy="105.5" r="7.42547" transform="rotate(-179.422 437.5 105.5)" fill="#285FEE"/>
<circle cx="582.5" cy="105.5" r="7.42547" transform="rotate(-179.422 582.5 105.5)" fill="#285FEE"/>
<circle cx="607.5" cy="105.5" r="7.42547" transform="rotate(-179.422 607.5 105.5)" fill="#285FEE"/>
<circle cx="607.5" cy="105.5" r="7.42547" transform="rotate(-179.422 607.5 105.5)" fill="#285FEE"/>
<circle cx="632.5" cy="105.5" r="7.42547" transform="rotate(-179.422 632.5 105.5)" fill="#285FEE"/>
<circle cx="632.5" cy="105.5" r="7.42547" transform="rotate(-179.422 632.5 105.5)" fill="#285FEE"/>
<circle cx="657.5" cy="105.5" r="7.42547" transform="rotate(-179.422 657.5 105.5)" fill="#285FEE"/>
<circle cx="657.5" cy="105.5" r="7.42547" transform="rotate(-179.422 657.5 105.5)" fill="#285FEE"/>
<circle cx="682.5" cy="105.5" r="7.42547" transform="rotate(-179.422 682.5 105.5)" fill="#285FEE"/>
<circle cx="682.5" cy="105.5" r="7.42547" transform="rotate(-179.422 682.5 105.5)" fill="#285FEE"/>
<path d="M525.679 4.45455H527.441V14.8523C527.441 15.7803 527.27 16.5687 526.929 17.2173C526.588 17.866 526.108 18.3584 525.487 18.6946C524.867 19.0308 524.136 19.1989 523.293 19.1989C522.497 19.1989 521.789 19.0545 521.169 18.7656C520.549 18.4721 520.061 18.0554 519.706 17.5156C519.351 16.9759 519.173 16.3343 519.173 15.5909H520.906C520.906 16.0028 521.008 16.3627 521.212 16.6705C521.42 16.9735 521.704 17.2102 522.064 17.3807C522.424 17.5511 522.834 17.6364 523.293 17.6364C523.799 17.6364 524.23 17.5298 524.585 17.3168C524.941 17.1037 525.21 16.7912 525.395 16.3793C525.584 15.9626 525.679 15.4536 525.679 14.8523V4.45455ZM537.618 14.5398V8.09091H539.294V19H537.618V17.1534H537.504C537.249 17.7074 536.851 18.1785 536.311 18.5668C535.771 18.9503 535.09 19.142 534.266 19.142C533.584 19.142 532.978 18.9929 532.448 18.6946C531.917 18.3916 531.501 17.937 531.198 17.331C530.895 16.7202 530.743 15.9508 530.743 15.0227V8.09091H532.419V14.9091C532.419 15.7045 532.642 16.339 533.087 16.8125C533.537 17.286 534.11 17.5227 534.806 17.5227C535.222 17.5227 535.646 17.4162 536.077 17.2031C536.512 16.9901 536.877 16.6634 537.171 16.223C537.469 15.7827 537.618 15.2216 537.618 14.5398ZM544.04 12.4375V19H542.364V8.09091H543.983V9.79545H544.126C544.381 9.24148 544.769 8.7964 545.29 8.46023C545.811 8.11932 546.483 7.94886 547.307 7.94886C548.046 7.94886 548.692 8.10038 549.246 8.40341C549.8 8.7017 550.231 9.15625 550.539 9.76705C550.847 10.3731 551.001 11.1402 551.001 12.0682V19H549.324V12.1818C549.324 11.3248 549.102 10.6572 548.657 10.179C548.212 9.69602 547.601 9.45455 546.824 9.45455C546.289 9.45455 545.811 9.57055 545.39 9.80256C544.973 10.0346 544.644 10.3731 544.403 10.8182C544.161 11.2633 544.04 11.803 544.04 12.4375ZM554.063 19V8.09091H555.74V19H554.063ZM554.916 6.27273C554.589 6.27273 554.307 6.16146 554.07 5.93892C553.838 5.71638 553.722 5.44886 553.722 5.13636C553.722 4.82386 553.838 4.55634 554.07 4.33381C554.307 4.11127 554.589 4 554.916 4C555.242 4 555.522 4.11127 555.754 4.33381C555.99 4.55634 556.109 4.82386 556.109 5.13636C556.109 5.44886 555.99 5.71638 555.754 5.93892C555.522 6.16146 555.242 6.27273 554.916 6.27273ZM563.241 19.2273C562.256 19.2273 561.392 18.9929 560.649 18.5241C559.91 18.0554 559.333 17.3996 558.916 16.5568C558.504 15.714 558.298 14.7292 558.298 13.6023C558.298 12.4659 558.504 11.474 558.916 10.6264C559.333 9.77888 559.91 9.12074 560.649 8.65199C561.392 8.18324 562.256 7.94886 563.241 7.94886C564.226 7.94886 565.088 8.18324 565.827 8.65199C566.57 9.12074 567.148 9.77888 567.559 10.6264C567.976 11.474 568.184 12.4659 568.184 13.6023C568.184 14.7292 567.976 15.714 567.559 16.5568C567.148 17.3996 566.57 18.0554 565.827 18.5241C565.088 18.9929 564.226 19.2273 563.241 19.2273ZM563.241 17.7216C563.989 17.7216 564.605 17.5298 565.088 17.1463C565.571 16.7628 565.928 16.2585 566.16 15.6335C566.392 15.0085 566.508 14.3314 566.508 13.6023C566.508 12.8731 566.392 12.1937 566.16 11.5639C565.928 10.9342 565.571 10.4252 565.088 10.0369C564.605 9.64867 563.989 9.45455 563.241 9.45455C562.493 9.45455 561.878 9.64867 561.395 10.0369C560.912 10.4252 560.554 10.9342 560.322 11.5639C560.09 12.1937 559.974 12.8731 559.974 13.6023C559.974 14.3314 560.09 15.0085 560.322 15.6335C560.554 16.2585 560.912 16.7628 561.395 17.1463C561.878 17.5298 562.493 17.7216 563.241 17.7216ZM570.743 19V8.09091H572.362V9.73864H572.476C572.675 9.19886 573.035 8.76089 573.556 8.42472C574.076 8.08854 574.664 7.92045 575.317 7.92045C575.44 7.92045 575.594 7.92282 575.779 7.92756C575.963 7.93229 576.103 7.93939 576.198 7.94886V9.65341C576.141 9.6392 576.011 9.6179 575.807 9.58949C575.608 9.55634 575.397 9.53977 575.175 9.53977C574.645 9.53977 574.171 9.65104 573.754 9.87358C573.343 10.0914 573.016 10.3944 572.774 10.7827C572.538 11.1662 572.419 11.6042 572.419 12.0966V19H570.743Z" fill="#264DE4"/>
<path d="M716.5 105.504L701.493 96.8549L701.506 114.175L716.5 105.504ZM72.0011 107.484L703.001 107.014L702.999 104.014L71.9989 104.484L72.0011 107.484Z" fill="#285FEE"/>
<circle cx="462.5" cy="105.5" r="7.42547" transform="rotate(-179.422 462.5 105.5)" fill="#285FEE"/>
<path d="M478.292 70V56H485.472V58.4H481.032V61.74H484.992V64.06H481.032V67.68H485.552V70H478.292ZM490.561 67.68H492.241C492.534 67.36 492.741 67.04 492.861 66.72C492.994 66.3867 493.061 65.9 493.061 65.26V56H495.801V64.26C495.801 64.94 495.781 65.4733 495.741 65.86C495.714 66.2333 495.634 66.6933 495.501 67.24C495.274 68.2133 494.647 69.1333 493.621 70H489.181C488.154 69.16 487.527 68.24 487.301 67.24C487.101 66.4267 487.001 65.4333 487.001 64.26V56H489.741V65.26C489.741 65.9 489.801 66.3867 489.921 66.72C490.054 67.04 490.267 67.36 490.561 67.68Z" fill="white"/>
<line x1="488.501" y1="106.05" x2="487.501" y2="76.05" stroke="white" stroke-width="3" stroke-dasharray="10 10"/>
<circle cx="487.5" cy="105.5" r="7.42547" transform="rotate(-179.422 487.5 105.5)" fill="white"/>
</svg>
