<svg width="21" height="20" viewBox="0 0 21 20" fill="none" xmlns="http://www.w3.org/2000/svg">
<path d="M19.7466 0H1.95441C1.66164 0 1.38087 0.116302 1.17385 0.323322C0.966827 0.530341 0.850525 0.81112 0.850525 1.10389V18.8964C0.850599 19.1891 0.966933 19.4698 1.17394 19.6768C1.38096 19.8837 1.66169 20 1.95441 20H11.533V12.255H8.92664V9.23667H11.533V7.01056C11.533 4.42722 13.1108 3.02083 15.4152 3.02083C16.5191 3.02083 17.4677 3.10278 17.7444 3.13972V5.83944L16.1461 5.84028C14.8927 5.84028 14.6502 6.43583 14.6502 7.30972V9.23694H17.6391L17.25 12.2553H14.6502V20H19.7469C20.0396 19.9999 20.3203 19.8836 20.5273 19.6766C20.7343 19.4696 20.8505 19.1888 20.8505 18.8961V1.10389C20.8505 0.81112 20.7342 0.530341 20.5272 0.323322C20.3202 0.116302 20.0394 0 19.7466 0Z" fill="white"/>
</svg>
