<svg width="21" height="20" viewBox="0 0 21 20" fill="none" xmlns="http://www.w3.org/2000/svg">
<path fill-rule="evenodd" clip-rule="evenodd" d="M10.85 0C5.3277 0 0.850525 4.47744 0.850525 10.0005C0.850525 14.4187 3.71514 18.1669 7.68924 19.4885C8.18976 19.581 8.37181 19.2731 8.37181 19.0072C8.37181 18.7703 8.36309 18.1418 8.35873 17.3064C5.57694 17.9113 4.99001 15.9656 4.99001 15.9656C4.53514 14.8105 3.8795 14.5033 3.8795 14.5033C2.97155 13.8833 3.94847 13.8954 3.94847 13.8954C4.95206 13.9664 5.48027 14.9256 5.48027 14.9256C6.37206 16.4538 7.82104 16.0115 8.39052 15.7572C8.48104 15.1097 8.74001 14.67 9.0254 14.4195C6.80514 14.1672 4.47078 13.3092 4.47078 9.47744C4.47078 8.38538 4.86027 7.49256 5.49976 6.79333C5.39745 6.54154 5.0536 5.52487 5.59796 4.14744C5.59796 4.14744 6.43745 3.87872 8.34822 5.17333C9.1454 4.95051 10.001 4.83923 10.8516 4.8359C11.7008 4.83949 12.5567 4.95051 13.3549 5.17333C15.2644 3.87872 16.1026 4.14744 16.1026 4.14744C16.6482 5.52487 16.3046 6.54154 16.2021 6.79333C16.8431 7.49256 17.2298 8.38538 17.2298 9.47744C17.2298 13.3182 14.8921 14.1644 12.6644 14.411C13.0228 14.72 13.3428 15.3315 13.3428 16.2646C13.3428 17.6008 13.3308 18.679 13.3308 19.0069C13.3308 19.2749 13.5105 19.5864 14.0182 19.4872C17.988 18.1628 20.8505 14.4174 20.8505 10.0005C20.8505 4.47744 16.3733 0 10.85 0V0Z" fill="white"/>
</svg>
