<svg width="27" height="20" viewBox="0 0 27 20" fill="none" xmlns="http://www.w3.org/2000/svg">
<path d="M22.1816 0.661361L20.485 1.98683L13.2611 7.355L6.03731 1.93381L4.3407 0.608342C3.94101 0.277697 3.4531 0.0715792 2.93741 0.015525C2.42172 -0.0405291 1.90092 0.0559437 1.43952 0.292991C0.978123 0.530039 0.596411 0.897244 0.341673 1.34911C0.0869352 1.80098 -0.0296337 2.31766 0.00640785 2.83514V18.1974C0.00640785 18.6754 0.196328 19.134 0.534389 19.472C0.87245 19.8101 1.33096 20 1.80905 20H6.03731V9.76735L13.2611 15.1885L20.485 9.76735V20H24.7132C25.1913 20 25.6498 19.8101 25.9879 19.472C26.3259 19.134 26.5159 18.6754 26.5159 18.1974V2.83514C26.5407 2.32213 26.4161 1.81294 26.157 1.36946C25.8979 0.92598 25.5156 0.567314 25.0565 0.337059C24.5973 0.106803 24.0812 0.0148746 23.5709 0.0724473C23.0605 0.13002 22.5778 0.334614 22.1816 0.661361V0.661361Z" fill="white"/>
</svg>
