<svg width="20" height="20" viewBox="0 0 20 20" fill="none" xmlns="http://www.w3.org/2000/svg">
<path d="M3.10944 10.3456C3.5975 10.7286 4.15556 10.92 4.78333 10.92C5.57639 10.8908 6.23722 10.6058 6.76611 10.0656C7.02111 9.68307 7.185 9.29029 7.25778 8.88779C7.30139 8.48584 7.32333 8.14668 7.32333 7.87168C7.32333 6.6839 7.01944 5.48612 6.41194 4.27834C6.12694 3.69946 5.75194 3.22807 5.28667 2.86446C4.81167 2.52112 4.26583 2.33918 3.64861 2.31973C2.83222 2.33918 2.15306 2.66862 1.61222 3.30668C1.15556 3.97445 0.937222 4.72057 0.957222 5.54473C0.957222 6.63473 1.27583 7.76918 1.91389 8.94696C2.21528 9.48813 2.62175 9.96364 3.10944 10.3456V10.3456ZM4.93917 14.9175C4.71995 14.629 4.52564 14.3225 4.35833 14.0011C4.16 13.6864 4.06111 13.3067 4.06111 12.8633C4.06111 12.5975 4.09861 12.3756 4.17417 12.1981C4.23509 12.0256 4.29648 11.8533 4.35833 11.6811C4.03705 11.7194 3.71383 11.7392 3.39028 11.7403C1.95444 11.7231 0.824444 11.3161 0 10.5214V15.8931C0.729106 15.558 1.49857 15.3189 2.28917 15.1817C3.35278 15.025 4.23611 14.937 4.93917 14.9175V14.9175ZM5.76111 15.7686C5.5363 15.7472 5.31054 15.7373 5.08472 15.7389C4.93111 15.7195 4.53778 15.7389 3.90472 15.7981C3.25692 15.8914 2.61712 16.0338 1.99083 16.2239C1.83722 16.2831 1.62139 16.3708 1.34333 16.4886C1.065 16.6161 0.781944 16.7972 0.494444 17.0328C0.30687 17.199 0.140771 17.3879 0 17.5953V18.4145C0.000294157 18.7837 0.147089 19.1378 0.408162 19.3989C0.669234 19.66 1.02325 19.8069 1.3925 19.8072H8.98306C8.98333 19.7883 8.98444 19.7703 8.98444 19.752C8.98444 18.9875 8.73472 18.3214 8.23611 17.7528C7.70833 17.2139 6.88361 16.5528 5.76111 15.7686V15.7686Z" fill="white"/>
<path d="M18.6072 0H1.3925C1.02321 0.000220841 0.669104 0.147039 0.408 0.408196C0.146895 0.669353 0.000147181 1.02348 0 1.39278V3.26028C0.0877778 3.16694 0.178611 3.07417 0.273611 2.9825C1.13 2.27722 2.02028 1.81722 2.94361 1.60111C3.8575 1.415 4.71444 1.32222 5.51389 1.32222H11.5394L9.67861 2.40833H7.82056C8.00972 2.52556 8.22278 2.6975 8.45917 2.92278C8.68611 3.15778 8.90861 3.44694 9.12611 3.78972C9.33417 4.11306 9.51861 4.495 9.67945 4.93611C9.81167 5.37667 9.87806 5.89167 9.87806 6.47917C9.86028 7.55722 9.62222 8.41917 9.16445 9.06583C8.94672 9.37082 8.70829 9.66049 8.45083 9.93278C8.16036 10.2085 7.86409 10.478 7.56222 10.7411C7.37632 10.9353 7.20953 11.1469 7.06417 11.3731C6.88472 11.6178 6.79472 11.9019 6.79472 12.2253C6.79472 12.5389 6.88695 12.7981 7.07083 13.0039C7.21293 13.184 7.36512 13.356 7.52667 13.5189L8.54889 14.3567C9.17116 14.8625 9.73202 15.4395 10.22 16.0758C10.6714 16.7128 10.9061 17.5456 10.9244 18.5742C10.9244 18.9994 10.8694 19.4103 10.76 19.8072H18.6072C18.9765 19.8069 19.3306 19.6601 19.5917 19.399C19.8529 19.1378 19.9997 18.7837 20 18.4144V1.3925C19.9997 1.02323 19.8529 0.669169 19.5917 0.408081C19.3306 0.146992 18.9765 0.000220695 18.6072 0V0ZM19.7031 6.14361H16.5414V9.30556H15.0097V6.14361H11.8481V4.61194H15.0097V1.45056H16.5414V4.61194H19.7031V6.14361Z" fill="white"/>
</svg>
