<svg width="718" height="128" viewBox="0 0 718 128" fill="none" xmlns="http://www.w3.org/2000/svg">
<path d="M44.0875 78L40.0711 122.995L22.0168 128L4.01231 123.002L0 78H44.0875Z" fill="#E44D26"/>
<path d="M22.0438 124.174L36.6325 120.13L40.0647 81.6794H22.0438V124.174Z" fill="#F16529"/>
<path d="M14.2358 92.7183H22.0437V87.199H8.20398L8.33601 88.6797L9.69263 103.889H22.0437V98.3701H14.7403L14.2358 92.7183V92.7183ZM15.4798 106.649H9.93924L10.7124 115.315L22.0183 118.454L22.0437 118.447V112.704L22.0196 112.711L15.8728 111.051L15.4798 106.649Z" fill="#EBEBEB"/>
<path d="M22.0247 103.889H28.8211L28.1803 111.047L22.0245 112.709V118.451L33.3394 115.315L33.4224 114.383L34.7196 99.8522L34.8542 98.3701H22.0247V103.889ZM22.0247 92.7048V92.7183H35.3564L35.467 91.4778L35.7186 88.6797L35.8505 87.199H22.0247V92.7049V92.7048Z" fill="white"/>
<line x1="208.5" y1="106.026" x2="208.5" y2="30.9997" stroke="#E44D26" stroke-width="3" stroke-dasharray="10 10"/>
<circle cx="208.5" cy="106.5" r="17.3261" transform="rotate(-179.422 208.5 106.5)" fill="#E44D26"/>
<circle cx="173.5" cy="105.5" r="7.42547" transform="rotate(-179.422 173.5 105.5)" fill="#E44D26"/>
<circle cx="173.5" cy="105.5" r="7.42547" transform="rotate(-179.422 173.5 105.5)" fill="#E44D26"/>
<circle cx="148.5" cy="105.5" r="7.42547" transform="rotate(-179.422 148.5 105.5)" fill="#E44D26"/>
<circle cx="148.5" cy="105.5" r="7.42547" transform="rotate(-179.422 148.5 105.5)" fill="#E44D26"/>
<circle cx="123.5" cy="105.5" r="7.42547" transform="rotate(-179.422 123.5 105.5)" fill="#E44D26"/>
<circle cx="123.5" cy="105.5" r="7.42547" transform="rotate(-179.422 123.5 105.5)" fill="#E44D26"/>
<circle cx="98.4999" cy="105.5" r="7.42547" transform="rotate(-179.422 98.4999 105.5)" fill="#E44D26"/>
<circle cx="98.4999" cy="105.5" r="7.42547" transform="rotate(-179.422 98.4999 105.5)" fill="#E44D26"/>
<circle cx="73.4999" cy="105.5" r="7.42547" transform="rotate(-179.422 73.4999 105.5)" fill="#E44D26"/>
<circle cx="73.4999" cy="105.5" r="7.42547" transform="rotate(-179.422 73.4999 105.5)" fill="#E44D26"/>
<path d="M168.809 19H166.963L172.303 4.45455H174.122L179.463 19H177.616L173.269 6.75568H173.156L168.809 19ZM169.491 13.3182H176.934V14.8807H169.491V13.3182ZM189.228 10.5341L187.722 10.9602C187.628 10.7093 187.488 10.4654 187.303 10.2287C187.124 9.98722 186.877 9.78835 186.565 9.6321C186.252 9.47585 185.852 9.39773 185.365 9.39773C184.697 9.39773 184.141 9.55161 183.695 9.85938C183.255 10.1624 183.035 10.5483 183.035 11.017C183.035 11.4337 183.186 11.7628 183.49 12.0043C183.793 12.2457 184.266 12.447 184.91 12.608L186.529 13.0057C187.505 13.2424 188.231 13.6046 188.71 14.0923C189.188 14.5753 189.427 15.1979 189.427 15.9602C189.427 16.5852 189.247 17.1439 188.887 17.6364C188.532 18.1288 188.035 18.517 187.396 18.8011C186.757 19.0852 186.013 19.2273 185.166 19.2273C184.053 19.2273 183.132 18.9858 182.403 18.5028C181.674 18.0199 181.212 17.3144 181.018 16.3864L182.609 15.9886C182.76 16.5758 183.047 17.0161 183.468 17.3097C183.894 17.6032 184.451 17.75 185.137 17.75C185.919 17.75 186.539 17.5843 186.998 17.2528C187.462 16.9167 187.694 16.5142 187.694 16.0455C187.694 15.6667 187.561 15.3494 187.296 15.0938C187.031 14.8333 186.624 14.6392 186.075 14.5114L184.257 14.0852C183.258 13.8485 182.524 13.4815 182.055 12.9844C181.591 12.4825 181.359 11.8551 181.359 11.1023C181.359 10.4867 181.532 9.94223 181.877 9.46875C182.228 8.99527 182.704 8.62358 183.305 8.35369C183.911 8.08381 184.597 7.94886 185.365 7.94886C186.444 7.94886 187.292 8.18561 187.907 8.65909C188.527 9.13258 188.968 9.75758 189.228 10.5341ZM191.95 23.0909V8.09091H193.569V9.82386H193.768C193.891 9.63447 194.062 9.39299 194.28 9.09943C194.502 8.80114 194.819 8.53598 195.231 8.30398C195.648 8.06723 196.211 7.94886 196.922 7.94886C197.84 7.94886 198.65 8.1785 199.351 8.63778C200.051 9.09706 200.598 9.74811 200.991 10.5909C201.384 11.4337 201.581 12.428 201.581 13.5739C201.581 14.7292 201.384 15.7306 200.991 16.5781C200.598 17.4209 200.054 18.0743 199.358 18.5384C198.662 18.9976 197.859 19.2273 196.95 19.2273C196.249 19.2273 195.688 19.1113 195.267 18.8793C194.845 18.6425 194.521 18.375 194.294 18.0767C194.067 17.7737 193.891 17.5227 193.768 17.3239H193.626V23.0909H191.95ZM193.598 13.5455C193.598 14.3693 193.719 15.0961 193.96 15.7259C194.202 16.3509 194.554 16.8409 195.018 17.196C195.482 17.5464 196.05 17.7216 196.723 17.7216C197.424 17.7216 198.008 17.5369 198.477 17.1676C198.951 16.7936 199.306 16.2917 199.542 15.6619C199.784 15.0275 199.905 14.322 199.905 13.5455C199.905 12.7784 199.786 12.0871 199.55 11.4716C199.318 10.8513 198.965 10.3613 198.491 10.0014C198.023 9.63684 197.433 9.45455 196.723 9.45455C196.041 9.45455 195.468 9.62737 195.004 9.97301C194.54 10.3139 194.19 10.7921 193.953 11.4077C193.716 12.0185 193.598 12.7311 193.598 13.5455ZM204.138 19V8.09091H205.814V19H204.138ZM204.99 6.27273C204.663 6.27273 204.381 6.16146 204.145 5.93892C203.913 5.71638 203.797 5.44886 203.797 5.13636C203.797 4.82386 203.913 4.55634 204.145 4.33381C204.381 4.11127 204.663 4 204.99 4C205.317 4 205.596 4.11127 205.828 4.33381C206.065 4.55634 206.183 4.82386 206.183 5.13636C206.183 5.44886 206.065 5.71638 205.828 5.93892C205.596 6.16146 205.317 6.27273 204.99 6.27273ZM208.884 19V8.09091H210.503V9.73864H210.617C210.816 9.19886 211.175 8.76089 211.696 8.42472C212.217 8.08854 212.804 7.92045 213.458 7.92045C213.581 7.92045 213.735 7.92282 213.919 7.92756C214.104 7.93229 214.244 7.93939 214.338 7.94886V9.65341C214.281 9.6392 214.151 9.6179 213.948 9.58949C213.749 9.55634 213.538 9.53977 213.316 9.53977C212.785 9.53977 212.312 9.65104 211.895 9.87358C211.483 10.0914 211.156 10.3944 210.915 10.7827C210.678 11.1662 210.56 11.6042 210.56 12.0966V19H208.884ZM219.535 19.2557C218.844 19.2557 218.217 19.1255 217.653 18.8651C217.09 18.5999 216.642 18.2188 216.311 17.7216C215.979 17.2197 215.814 16.6136 215.814 15.9034C215.814 15.2784 215.937 14.7718 216.183 14.3835C216.429 13.9905 216.758 13.6828 217.17 13.4602C217.582 13.2377 218.037 13.072 218.534 12.9631C219.036 12.8494 219.54 12.7595 220.047 12.6932C220.71 12.608 221.247 12.544 221.659 12.5014C222.076 12.4541 222.379 12.3759 222.568 12.267C222.762 12.1581 222.859 11.9687 222.859 11.6989V11.642C222.859 10.9413 222.667 10.3968 222.284 10.0085C221.905 9.62027 221.33 9.42614 220.558 9.42614C219.758 9.42614 219.131 9.60133 218.676 9.9517C218.221 10.3021 217.902 10.6761 217.717 11.0739L216.126 10.5057C216.41 9.8428 216.789 9.3267 217.263 8.95739C217.741 8.58333 218.262 8.32292 218.825 8.17614C219.393 8.02462 219.952 7.94886 220.501 7.94886C220.852 7.94886 221.254 7.99148 221.709 8.0767C222.168 8.1572 222.611 8.32528 223.037 8.58097C223.468 8.83665 223.825 9.22254 224.109 9.73864C224.393 10.2547 224.535 10.946 224.535 11.8125V19H222.859V17.5227H222.774C222.66 17.7595 222.471 18.0128 222.206 18.2827C221.941 18.5526 221.588 18.7822 221.148 18.9716C220.707 19.161 220.17 19.2557 219.535 19.2557ZM219.791 17.75C220.454 17.75 221.013 17.6198 221.467 17.3594C221.926 17.099 222.272 16.7628 222.504 16.3509C222.741 15.9389 222.859 15.5057 222.859 15.0511V13.517C222.788 13.6023 222.632 13.6804 222.39 13.7514C222.154 13.8177 221.879 13.8769 221.567 13.929C221.259 13.9763 220.958 14.0189 220.665 14.0568C220.376 14.09 220.141 14.1184 219.961 14.142C219.526 14.1989 219.119 14.2912 218.74 14.419C218.366 14.5421 218.063 14.7292 217.831 14.9801C217.604 15.2263 217.49 15.5625 217.49 15.9886C217.49 16.571 217.705 17.0114 218.136 17.3097C218.572 17.6032 219.123 17.75 219.791 17.75ZM229.271 12.4375V19H227.595V8.09091H229.214V9.79545H229.356C229.612 9.24148 230 8.7964 230.521 8.46023C231.042 8.11932 231.714 7.94886 232.538 7.94886C233.276 7.94886 233.923 8.10038 234.477 8.40341C235.031 8.7017 235.462 9.15625 235.769 9.76705C236.077 10.3731 236.231 11.1402 236.231 12.0682V19H234.555V12.1818C234.555 11.3248 234.332 10.6572 233.887 10.179C233.442 9.69602 232.831 9.45455 232.055 9.45455C231.52 9.45455 231.042 9.57055 230.62 9.80256C230.204 10.0346 229.874 10.3731 229.633 10.8182C229.392 11.2633 229.271 11.803 229.271 12.4375ZM244.038 8.09091V9.51136H238.385V8.09091H244.038ZM240.032 5.47727H241.709V15.875C241.709 16.3485 241.777 16.7036 241.915 16.9403C242.057 17.1723 242.237 17.3286 242.454 17.4091C242.677 17.4848 242.911 17.5227 243.157 17.5227C243.342 17.5227 243.494 17.5133 243.612 17.4943C243.73 17.4706 243.825 17.4517 243.896 17.4375L244.237 18.9432C244.123 18.9858 243.965 19.0284 243.761 19.071C243.558 19.1184 243.3 19.142 242.987 19.142C242.514 19.142 242.05 19.0402 241.595 18.8366C241.145 18.633 240.771 18.3229 240.473 17.9062C240.179 17.4896 240.032 16.964 240.032 16.3295V5.47727ZM251.016 19.2273C249.965 19.2273 249.058 18.9953 248.296 18.5312C247.538 18.0625 246.954 17.4091 246.542 16.571C246.135 15.7282 245.931 14.7481 245.931 13.6307C245.931 12.5133 246.135 11.5284 246.542 10.6761C246.954 9.81913 247.527 9.15152 248.26 8.6733C248.999 8.19034 249.861 7.94886 250.846 7.94886C251.414 7.94886 251.975 8.04356 252.529 8.23295C253.083 8.42235 253.587 8.73011 254.042 9.15625C254.496 9.57765 254.858 10.1364 255.128 10.8324C255.398 11.5284 255.533 12.3854 255.533 13.4034V14.1136H247.124V12.6648H253.829C253.829 12.0492 253.706 11.5 253.459 11.017C253.218 10.5341 252.872 10.1529 252.422 9.87358C251.977 9.59422 251.452 9.45455 250.846 9.45455C250.178 9.45455 249.6 9.62026 249.113 9.9517C248.63 10.2784 248.258 10.7045 247.998 11.2301C247.737 11.7557 247.607 12.3191 247.607 12.9205V13.8864C247.607 14.7102 247.749 15.4086 248.033 15.9815C248.322 16.5497 248.722 16.983 249.233 17.2812C249.745 17.5748 250.339 17.7216 251.016 17.7216C251.456 17.7216 251.854 17.66 252.209 17.5369C252.569 17.4091 252.879 17.2197 253.14 16.9688C253.4 16.7131 253.601 16.3958 253.743 16.017L255.363 16.4716C255.192 17.0208 254.906 17.5038 254.503 17.9205C254.101 18.3324 253.604 18.6544 253.012 18.8864C252.42 19.1136 251.755 19.2273 251.016 19.2273Z" fill="#E44D26"/>
<line x1="378.5" y1="106.027" x2="378.5" y2="31.0002" stroke="#E44D26" stroke-width="3" stroke-dasharray="10 10"/>
<circle cx="378.5" cy="106.5" r="17.3261" transform="rotate(-179.422 378.5 106.5)" fill="#E44D26"/>
<circle cx="243.5" cy="105.5" r="7.42547" transform="rotate(-179.422 243.5 105.5)" fill="#E44D26"/>
<circle cx="268.5" cy="105.5" r="7.42547" transform="rotate(-179.422 268.5 105.5)" fill="#E44D26"/>
<circle cx="268.5" cy="105.5" r="7.42547" transform="rotate(-179.422 268.5 105.5)" fill="#E44D26"/>
<circle cx="293.5" cy="105.5" r="7.42547" transform="rotate(-179.422 293.5 105.5)" fill="#E44D26"/>
<circle cx="293.5" cy="105.5" r="7.42547" transform="rotate(-179.422 293.5 105.5)" fill="#E44D26"/>
<circle cx="318.5" cy="105.5" r="7.42547" transform="rotate(-179.422 318.5 105.5)" fill="#E44D26"/>
<circle cx="318.5" cy="105.5" r="7.42547" transform="rotate(-179.422 318.5 105.5)" fill="#E44D26"/>
<circle cx="343.5" cy="105.5" r="7.42547" transform="rotate(-179.422 343.5 105.5)" fill="#E44D26"/>
<circle cx="343.5" cy="105.5" r="7.42547" transform="rotate(-179.422 343.5 105.5)" fill="#E44D26"/>
<path d="M341.816 4.45455V19H340.054V4.45455H341.816ZM346.796 12.4375V19H345.12V8.09091H346.739V9.79545H346.881C347.137 9.24148 347.525 8.7964 348.046 8.46023C348.567 8.11932 349.239 7.94886 350.063 7.94886C350.802 7.94886 351.448 8.10038 352.002 8.40341C352.556 8.7017 352.987 9.15625 353.295 9.76705C353.603 10.3731 353.756 11.1402 353.756 12.0682V19H352.08V12.1818C352.08 11.3248 351.858 10.6572 351.413 10.179C350.968 9.69602 350.357 9.45455 349.58 9.45455C349.045 9.45455 348.567 9.57055 348.146 9.80256C347.729 10.0346 347.4 10.3731 347.158 10.8182C346.917 11.2633 346.796 11.803 346.796 12.4375ZM356.819 19V8.09091H358.495V19H356.819ZM357.672 6.27273C357.345 6.27273 357.063 6.16146 356.826 5.93892C356.594 5.71638 356.478 5.44886 356.478 5.13636C356.478 4.82386 356.594 4.55634 356.826 4.33381C357.063 4.11127 357.345 4 357.672 4C357.998 4 358.278 4.11127 358.51 4.33381C358.746 4.55634 358.865 4.82386 358.865 5.13636C358.865 5.44886 358.746 5.71638 358.51 5.93892C358.278 6.16146 357.998 6.27273 357.672 6.27273ZM365.997 19.2273C364.974 19.2273 364.094 18.9858 363.355 18.5028C362.616 18.0199 362.048 17.3546 361.651 16.5071C361.253 15.6596 361.054 14.6913 361.054 13.6023C361.054 12.4943 361.258 11.5166 361.665 10.669C362.077 9.81676 362.65 9.15152 363.384 8.6733C364.122 8.19034 364.984 7.94886 365.969 7.94886C366.736 7.94886 367.427 8.09091 368.043 8.375C368.658 8.65909 369.162 9.05682 369.555 9.56818C369.948 10.0795 370.192 10.6761 370.287 11.358H368.611C368.483 10.8608 368.199 10.4205 367.759 10.0369C367.323 9.64867 366.736 9.45455 365.997 9.45455C365.344 9.45455 364.771 9.625 364.278 9.96591C363.791 10.3021 363.41 10.7779 363.135 11.3935C362.865 12.0043 362.73 12.7216 362.73 13.5455C362.73 14.3883 362.863 15.1222 363.128 15.7472C363.398 16.3722 363.777 16.8575 364.264 17.2031C364.757 17.5488 365.334 17.7216 365.997 17.7216C366.433 17.7216 366.828 17.6458 367.183 17.4943C367.538 17.3428 367.839 17.125 368.085 16.8409C368.331 16.5568 368.507 16.2159 368.611 15.8182H370.287C370.192 16.4621 369.958 17.0421 369.584 17.5582C369.214 18.0696 368.724 18.4768 368.114 18.7798C367.508 19.0781 366.802 19.2273 365.997 19.2273ZM372.737 19V8.09091H374.413V19H372.737ZM373.589 6.27273C373.263 6.27273 372.981 6.16146 372.744 5.93892C372.512 5.71638 372.396 5.44886 372.396 5.13636C372.396 4.82386 372.512 4.55634 372.744 4.33381C372.981 4.11127 373.263 4 373.589 4C373.916 4 374.196 4.11127 374.428 4.33381C374.664 4.55634 374.783 4.82386 374.783 5.13636C374.783 5.44886 374.664 5.71638 374.428 5.93892C374.196 6.16146 373.916 6.27273 373.589 6.27273ZM380.694 19.2557C380.002 19.2557 379.375 19.1255 378.811 18.8651C378.248 18.5999 377.801 18.2188 377.469 17.7216C377.138 17.2197 376.972 16.6136 376.972 15.9034C376.972 15.2784 377.095 14.7718 377.341 14.3835C377.587 13.9905 377.917 13.6828 378.328 13.4602C378.74 13.2377 379.195 13.072 379.692 12.9631C380.194 12.8494 380.698 12.7595 381.205 12.6932C381.868 12.608 382.405 12.544 382.817 12.5014C383.234 12.4541 383.537 12.3759 383.726 12.267C383.92 12.1581 384.017 11.9687 384.017 11.6989V11.642C384.017 10.9413 383.826 10.3968 383.442 10.0085C383.063 9.62027 382.488 9.42614 381.716 9.42614C380.916 9.42614 380.289 9.60133 379.834 9.9517C379.38 10.3021 379.06 10.6761 378.875 11.0739L377.284 10.5057C377.569 9.8428 377.947 9.3267 378.421 8.95739C378.899 8.58333 379.42 8.32292 379.983 8.17614C380.551 8.02462 381.11 7.94886 381.659 7.94886C382.01 7.94886 382.412 7.99148 382.867 8.0767C383.326 8.1572 383.769 8.32528 384.195 8.58097C384.626 8.83665 384.983 9.22254 385.267 9.73864C385.551 10.2547 385.694 10.946 385.694 11.8125V19H384.017V17.5227H383.932C383.819 17.7595 383.629 18.0128 383.364 18.2827C383.099 18.5526 382.746 18.7822 382.306 18.9716C381.865 19.161 381.328 19.2557 380.694 19.2557ZM380.949 17.75C381.612 17.75 382.171 17.6198 382.625 17.3594C383.085 17.099 383.43 16.7628 383.662 16.3509C383.899 15.9389 384.017 15.5057 384.017 15.0511V13.517C383.946 13.6023 383.79 13.6804 383.549 13.7514C383.312 13.8177 383.037 13.8769 382.725 13.929C382.417 13.9763 382.116 14.0189 381.823 14.0568C381.534 14.09 381.3 14.1184 381.12 14.142C380.684 14.1989 380.277 14.2912 379.898 14.419C379.524 14.5421 379.221 14.7292 378.989 14.9801C378.762 15.2263 378.648 15.5625 378.648 15.9886C378.648 16.571 378.864 17.0114 379.294 17.3097C379.73 17.6032 380.282 17.75 380.949 17.75ZM390.429 12.4375V19H388.753V8.09091H390.372V9.79545H390.514C390.77 9.24148 391.158 8.7964 391.679 8.46023C392.2 8.11932 392.872 7.94886 393.696 7.94886C394.435 7.94886 395.081 8.10038 395.635 8.40341C396.189 8.7017 396.62 9.15625 396.928 9.76705C397.235 10.3731 397.389 11.1402 397.389 12.0682V19H395.713V12.1818C395.713 11.3248 395.491 10.6572 395.045 10.179C394.6 9.69602 393.99 9.45455 393.213 9.45455C392.678 9.45455 392.2 9.57055 391.778 9.80256C391.362 10.0346 391.033 10.3731 390.791 10.8182C390.55 11.2633 390.429 11.803 390.429 12.4375ZM405.196 8.09091V9.51136H399.543V8.09091H405.196ZM401.191 5.47727H402.867V15.875C402.867 16.3485 402.935 16.7036 403.073 16.9403C403.215 17.1723 403.395 17.3286 403.613 17.4091C403.835 17.4848 404.069 17.5227 404.316 17.5227C404.5 17.5227 404.652 17.5133 404.77 17.4943C404.889 17.4706 404.983 17.4517 405.054 17.4375L405.395 18.9432C405.282 18.9858 405.123 19.0284 404.919 19.071C404.716 19.1184 404.458 19.142 404.145 19.142C403.672 19.142 403.208 19.0402 402.753 18.8366C402.303 18.633 401.929 18.3229 401.631 17.9062C401.337 17.4896 401.191 16.964 401.191 16.3295V5.47727ZM412.174 19.2273C411.123 19.2273 410.217 18.9953 409.454 18.5312C408.697 18.0625 408.112 17.4091 407.7 16.571C407.293 15.7282 407.089 14.7481 407.089 13.6307C407.089 12.5133 407.293 11.5284 407.7 10.6761C408.112 9.81913 408.685 9.15152 409.419 8.6733C410.157 8.19034 411.019 7.94886 412.004 7.94886C412.572 7.94886 413.133 8.04356 413.687 8.23295C414.241 8.42235 414.745 8.73011 415.2 9.15625C415.654 9.57765 416.017 10.1364 416.287 10.8324C416.556 11.5284 416.691 12.3854 416.691 13.4034V14.1136H408.282V12.6648H414.987C414.987 12.0492 414.864 11.5 414.618 11.017C414.376 10.5341 414.03 10.1529 413.581 9.87358C413.136 9.59422 412.61 9.45455 412.004 9.45455C411.336 9.45455 410.759 9.62026 410.271 9.9517C409.788 10.2784 409.416 10.7045 409.156 11.2301C408.895 11.7557 408.765 12.3191 408.765 12.9205V13.8864C408.765 14.7102 408.907 15.4086 409.191 15.9815C409.48 16.5497 409.88 16.983 410.392 17.2812C410.903 17.5748 411.497 17.7216 412.174 17.7216C412.615 17.7216 413.012 17.66 413.368 17.5369C413.727 17.4091 414.038 17.2197 414.298 16.9688C414.558 16.7131 414.76 16.3958 414.902 16.017L416.521 16.4716C416.35 17.0208 416.064 17.5038 415.662 17.9205C415.259 18.3324 414.762 18.6544 414.17 18.8864C413.578 19.1136 412.913 19.2273 412.174 19.2273Z" fill="#E44D26"/>
<line x1="548.5" y1="106.027" x2="548.5" y2="31.0002" stroke="#E44D26" stroke-width="3" stroke-dasharray="10 10"/>
<circle cx="548.5" cy="106.5" r="17.3261" transform="rotate(-179.422 548.5 106.5)" fill="#E44D26"/>
<circle cx="413.5" cy="105.5" r="7.42547" transform="rotate(-179.422 413.5 105.5)" fill="#E44D26"/>
<circle cx="488.5" cy="105.5" r="7.42547" transform="rotate(-179.422 488.5 105.5)" fill="#E44D26"/>
<circle cx="488.5" cy="105.5" r="7.42547" transform="rotate(-179.422 488.5 105.5)" fill="#E44D26"/>
<circle cx="513.5" cy="105.5" r="7.42547" transform="rotate(-179.422 513.5 105.5)" fill="#E44D26"/>
<circle cx="513.5" cy="105.5" r="7.42547" transform="rotate(-179.422 513.5 105.5)" fill="#E44D26"/>
<circle cx="438.5" cy="105.5" r="7.42547" transform="rotate(-179.422 438.5 105.5)" fill="#E44D26"/>
<circle cx="438.5" cy="105.5" r="7.42547" transform="rotate(-179.422 438.5 105.5)" fill="#E44D26"/>
<circle cx="583.5" cy="105.5" r="7.42547" transform="rotate(-179.422 583.5 105.5)" fill="#E44D26"/>
<circle cx="608.5" cy="105.5" r="7.42547" transform="rotate(-179.422 608.5 105.5)" fill="#E44D26"/>
<circle cx="608.5" cy="105.5" r="7.42547" transform="rotate(-179.422 608.5 105.5)" fill="#E44D26"/>
<circle cx="633.5" cy="105.5" r="7.42547" transform="rotate(-179.422 633.5 105.5)" fill="#E44D26"/>
<circle cx="633.5" cy="105.5" r="7.42547" transform="rotate(-179.422 633.5 105.5)" fill="#E44D26"/>
<circle cx="658.5" cy="105.5" r="7.42547" transform="rotate(-179.422 658.5 105.5)" fill="#E44D26"/>
<circle cx="658.5" cy="105.5" r="7.42547" transform="rotate(-179.422 658.5 105.5)" fill="#E44D26"/>
<circle cx="683.5" cy="105.5" r="7.42547" transform="rotate(-179.422 683.5 105.5)" fill="#E44D26"/>
<circle cx="683.5" cy="105.5" r="7.42547" transform="rotate(-179.422 683.5 105.5)" fill="#E44D26"/>
<path d="M526.679 4.45455H528.441V14.8523C528.441 15.7803 528.27 16.5687 527.929 17.2173C527.588 17.866 527.108 18.3584 526.487 18.6946C525.867 19.0308 525.136 19.1989 524.293 19.1989C523.497 19.1989 522.789 19.0545 522.169 18.7656C521.549 18.4721 521.061 18.0554 520.706 17.5156C520.351 16.9759 520.173 16.3343 520.173 15.5909H521.906C521.906 16.0028 522.008 16.3627 522.212 16.6705C522.42 16.9735 522.704 17.2102 523.064 17.3807C523.424 17.5511 523.834 17.6364 524.293 17.6364C524.799 17.6364 525.23 17.5298 525.585 17.3168C525.941 17.1037 526.21 16.7912 526.395 16.3793C526.584 15.9626 526.679 15.4536 526.679 14.8523V4.45455ZM538.618 14.5398V8.09091H540.294V19H538.618V17.1534H538.504C538.249 17.7074 537.851 18.1785 537.311 18.5668C536.771 18.9503 536.09 19.142 535.266 19.142C534.584 19.142 533.978 18.9929 533.448 18.6946C532.917 18.3916 532.501 17.937 532.198 17.331C531.895 16.7202 531.743 15.9508 531.743 15.0227V8.09091H533.419V14.9091C533.419 15.7045 533.642 16.339 534.087 16.8125C534.537 17.286 535.11 17.5227 535.806 17.5227C536.222 17.5227 536.646 17.4162 537.077 17.2031C537.512 16.9901 537.877 16.6634 538.171 16.223C538.469 15.7827 538.618 15.2216 538.618 14.5398ZM545.04 12.4375V19H543.364V8.09091H544.983V9.79545H545.126C545.381 9.24148 545.769 8.7964 546.29 8.46023C546.811 8.11932 547.483 7.94886 548.307 7.94886C549.046 7.94886 549.692 8.10038 550.246 8.40341C550.8 8.7017 551.231 9.15625 551.539 9.76705C551.847 10.3731 552.001 11.1402 552.001 12.0682V19H550.324V12.1818C550.324 11.3248 550.102 10.6572 549.657 10.179C549.212 9.69602 548.601 9.45455 547.824 9.45455C547.289 9.45455 546.811 9.57055 546.39 9.80256C545.973 10.0346 545.644 10.3731 545.403 10.8182C545.161 11.2633 545.04 11.803 545.04 12.4375ZM555.063 19V8.09091H556.74V19H555.063ZM555.916 6.27273C555.589 6.27273 555.307 6.16146 555.07 5.93892C554.838 5.71638 554.722 5.44886 554.722 5.13636C554.722 4.82386 554.838 4.55634 555.07 4.33381C555.307 4.11127 555.589 4 555.916 4C556.242 4 556.522 4.11127 556.754 4.33381C556.99 4.55634 557.109 4.82386 557.109 5.13636C557.109 5.44886 556.99 5.71638 556.754 5.93892C556.522 6.16146 556.242 6.27273 555.916 6.27273ZM564.241 19.2273C563.256 19.2273 562.392 18.9929 561.649 18.5241C560.91 18.0554 560.333 17.3996 559.916 16.5568C559.504 15.714 559.298 14.7292 559.298 13.6023C559.298 12.4659 559.504 11.474 559.916 10.6264C560.333 9.77888 560.91 9.12074 561.649 8.65199C562.392 8.18324 563.256 7.94886 564.241 7.94886C565.226 7.94886 566.088 8.18324 566.827 8.65199C567.57 9.12074 568.148 9.77888 568.559 10.6264C568.976 11.474 569.184 12.4659 569.184 13.6023C569.184 14.7292 568.976 15.714 568.559 16.5568C568.148 17.3996 567.57 18.0554 566.827 18.5241C566.088 18.9929 565.226 19.2273 564.241 19.2273ZM564.241 17.7216C564.989 17.7216 565.605 17.5298 566.088 17.1463C566.571 16.7628 566.928 16.2585 567.16 15.6335C567.392 15.0085 567.508 14.3314 567.508 13.6023C567.508 12.8731 567.392 12.1937 567.16 11.5639C566.928 10.9342 566.571 10.4252 566.088 10.0369C565.605 9.64867 564.989 9.45455 564.241 9.45455C563.493 9.45455 562.878 9.64867 562.395 10.0369C561.912 10.4252 561.554 10.9342 561.322 11.5639C561.09 12.1937 560.974 12.8731 560.974 13.6023C560.974 14.3314 561.09 15.0085 561.322 15.6335C561.554 16.2585 561.912 16.7628 562.395 17.1463C562.878 17.5298 563.493 17.7216 564.241 17.7216ZM571.743 19V8.09091H573.362V9.73864H573.476C573.675 9.19886 574.035 8.76089 574.556 8.42472C575.076 8.08854 575.664 7.92045 576.317 7.92045C576.44 7.92045 576.594 7.92282 576.779 7.92756C576.963 7.93229 577.103 7.93939 577.198 7.94886V9.65341C577.141 9.6392 577.011 9.6179 576.807 9.58949C576.608 9.55634 576.397 9.53977 576.175 9.53977C575.645 9.53977 575.171 9.65104 574.754 9.87358C574.343 10.0914 574.016 10.3944 573.774 10.7827C573.538 11.1662 573.419 11.6042 573.419 12.0966V19H571.743Z" fill="#E44D26"/>
<path d="M717.5 105.504L702.493 96.8549L702.506 114.175L717.5 105.504ZM73.0011 107.484L704.001 107.014L703.999 104.014L72.9989 104.484L73.0011 107.484Z" fill="#E44D26"/>
<circle cx="463.5" cy="105.5" r="7.42547" transform="rotate(-179.422 463.5 105.5)" fill="#E44D26"/>
<path d="M504.292 70V56H511.472V58.4H507.032V61.74H510.992V64.06H507.032V67.68H511.552V70H504.292ZM516.561 67.68H518.241C518.534 67.36 518.741 67.04 518.861 66.72C518.994 66.3867 519.061 65.9 519.061 65.26V56H521.801V64.26C521.801 64.94 521.781 65.4733 521.741 65.86C521.714 66.2333 521.634 66.6933 521.501 67.24C521.274 68.2133 520.647 69.1333 519.621 70H515.181C514.154 69.16 513.527 68.24 513.301 67.24C513.101 66.4267 513.001 65.4333 513.001 64.26V56H515.741V65.26C515.741 65.9 515.801 66.3867 515.921 66.72C516.054 67.04 516.267 67.36 516.561 67.68Z" fill="white"/>
<line x1="514.501" y1="106.05" x2="513.501" y2="76.05" stroke="white" stroke-width="3" stroke-dasharray="10 10"/>
<circle cx="513.5" cy="105.5" r="7.42547" transform="rotate(-179.422 513.5 105.5)" fill="white"/>
</svg>
