<svg width="21" height="20" viewBox="0 0 21 20" fill="none" xmlns="http://www.w3.org/2000/svg">
<path fill-rule="evenodd" clip-rule="evenodd" d="M10.8794 5.65222C8.41747 5.65222 6.41775 7.65167 6.41775 10.1178C6.41775 12.5839 8.41747 14.5794 10.8794 14.5794C13.3455 14.5794 15.3452 12.5836 15.3452 10.1178C15.3452 7.65167 13.3455 5.65222 10.8794 5.65222V5.65222Z" fill="white"/>
<path fill-rule="evenodd" clip-rule="evenodd" d="M18.9061 0H2.79497C2.27927 0 1.78469 0.204861 1.42004 0.569515C1.05539 0.934169 0.850525 1.42875 0.850525 1.94444V18.0556C0.850525 18.5713 1.05539 19.0658 1.42004 19.4305C1.78469 19.7951 2.27927 20 2.79497 20H18.9061C19.4218 20 19.9164 19.7951 20.281 19.4305C20.6457 19.0658 20.8505 18.5713 20.8505 18.0556V1.94444C20.8505 1.42875 20.6457 0.934169 20.281 0.569515C19.9164 0.204861 19.4218 0 18.9061 0V0ZM10.8794 16.8631C7.15608 16.8631 4.13025 13.8453 4.13025 10.1178C4.13025 6.39028 7.15608 3.36472 10.8794 3.36472C14.6069 3.36472 17.6286 6.39056 17.6286 10.1178C17.6286 13.8453 14.6069 16.8631 10.8794 16.8631Z" fill="white"/>
</svg>
