<svg width="728" height="134" viewBox="0 0 728 134" fill="none" xmlns="http://www.w3.org/2000/svg">
<path d="M16.1031 119.948C16.1031 119.948 13.5125 121.326 17.9469 121.792C23.3191 122.353 26.0646 122.272 31.9849 121.248C31.9849 121.248 33.5415 122.14 35.715 122.913C22.4437 128.115 5.67893 122.612 16.1031 119.948ZM14.4814 113.16C14.4814 113.16 11.5757 115.127 16.0134 115.547C21.7521 116.088 26.2841 116.133 34.1263 114.752C34.1263 114.752 35.211 115.757 36.9165 116.307C20.8704 120.598 2.998 116.646 14.4814 113.16Z" fill="#5382A1"/>
<path d="M28.9994 99.982C32.2696 103.425 28.1402 106.523 28.1402 106.523C28.1402 106.523 36.4435 102.603 32.6302 97.6945C29.0687 93.1169 26.3373 90.8421 41.1233 83C41.1233 83 17.9143 88.301 28.9994 99.9818" fill="#E76F00"/>
<path d="M45.7056 124.969C45.7056 124.969 47.6227 126.413 43.5941 127.531C35.9337 129.653 11.7103 130.294 4.9811 127.615C2.56221 126.653 7.09848 125.318 8.52531 125.037C10.0134 124.742 10.8639 124.797 10.8639 124.797C8.17375 123.064 -6.52405 128.2 3.39821 129.671C30.4574 133.684 52.7243 127.864 45.7056 124.969ZM17.3487 106.127C17.3487 106.127 5.02742 108.803 12.9856 109.775C16.3457 110.186 23.0441 110.093 29.2836 109.615C34.3828 109.222 39.503 108.386 39.503 108.386C39.503 108.386 37.705 109.09 36.4042 109.902C23.8919 112.912 -0.279673 111.512 6.679 108.433C12.564 105.832 17.3489 106.127 17.3489 106.127M39.4522 117.426C52.1718 111.381 46.2907 105.572 42.1859 106.355C41.1797 106.547 40.7312 106.712 40.7312 106.712C40.7312 106.712 41.1047 106.177 41.8181 105.946C49.9386 103.335 56.1839 113.646 39.1966 117.73C39.1966 117.73 39.3935 117.57 39.4522 117.426Z" fill="#5382A1"/>
<path d="M31.7838 72.0002C31.7838 72.0002 38.828 78.4446 25.1026 88.3539C14.0965 96.303 22.5929 100.835 25.0981 106.014C18.6735 100.713 13.9587 96.0461 17.1219 91.703C21.7643 85.3273 34.6258 82.2363 31.7838 72" fill="#E76F00"/>
<path d="M18.5987 133.805C30.8078 134.52 49.556 133.409 50 128.125C50 128.125 49.1466 130.128 39.91 131.719C29.4893 133.512 16.637 133.303 9.0141 132.154C9.0141 132.154 10.5744 133.335 18.5987 133.805Z" fill="#5382A1"/>
<line x1="218.5" y1="106.026" x2="218.5" y2="30.9997" stroke="#3F627A" stroke-width="3" stroke-dasharray="10 10"/>
<circle cx="218.5" cy="106.5" r="17.3261" transform="rotate(-179.422 218.5 106.5)" fill="#3F627A"/>
<circle cx="183.5" cy="105.5" r="7.42547" transform="rotate(-179.422 183.5 105.5)" fill="#3F627A"/>
<circle cx="183.5" cy="105.5" r="7.42547" transform="rotate(-179.422 183.5 105.5)" fill="#3F627A"/>
<circle cx="158.5" cy="105.5" r="7.42547" transform="rotate(-179.422 158.5 105.5)" fill="#3F627A"/>
<circle cx="158.5" cy="105.5" r="7.42547" transform="rotate(-179.422 158.5 105.5)" fill="#3F627A"/>
<circle cx="133.5" cy="105.5" r="7.42547" transform="rotate(-179.422 133.5 105.5)" fill="#3F627A"/>
<circle cx="133.5" cy="105.5" r="7.42547" transform="rotate(-179.422 133.5 105.5)" fill="#3F627A"/>
<circle cx="108.5" cy="105.5" r="7.42547" transform="rotate(-179.422 108.5 105.5)" fill="#3F627A"/>
<circle cx="108.5" cy="105.5" r="7.42547" transform="rotate(-179.422 108.5 105.5)" fill="#3F627A"/>
<circle cx="83.4999" cy="105.5" r="7.42547" transform="rotate(-179.422 83.4999 105.5)" fill="#3F627A"/>
<circle cx="83.4999" cy="105.5" r="7.42547" transform="rotate(-179.422 83.4999 105.5)" fill="#3F627A"/>
<path d="M178.809 19H176.963L182.303 4.45455H184.122L189.463 19H187.616L183.269 6.75568H183.156L178.809 19ZM179.491 13.3182H186.934V14.8807H179.491V13.3182ZM199.228 10.5341L197.722 10.9602C197.628 10.7093 197.488 10.4654 197.303 10.2287C197.124 9.98722 196.877 9.78835 196.565 9.6321C196.252 9.47585 195.852 9.39773 195.365 9.39773C194.697 9.39773 194.141 9.55161 193.695 9.85938C193.255 10.1624 193.035 10.5483 193.035 11.017C193.035 11.4337 193.186 11.7628 193.49 12.0043C193.793 12.2457 194.266 12.447 194.91 12.608L196.529 13.0057C197.505 13.2424 198.231 13.6046 198.71 14.0923C199.188 14.5753 199.427 15.1979 199.427 15.9602C199.427 16.5852 199.247 17.1439 198.887 17.6364C198.532 18.1288 198.035 18.517 197.396 18.8011C196.757 19.0852 196.013 19.2273 195.166 19.2273C194.053 19.2273 193.132 18.9858 192.403 18.5028C191.674 18.0199 191.212 17.3144 191.018 16.3864L192.609 15.9886C192.76 16.5758 193.047 17.0161 193.468 17.3097C193.894 17.6032 194.451 17.75 195.137 17.75C195.919 17.75 196.539 17.5843 196.998 17.2528C197.462 16.9167 197.694 16.5142 197.694 16.0455C197.694 15.6667 197.561 15.3494 197.296 15.0938C197.031 14.8333 196.624 14.6392 196.075 14.5114L194.257 14.0852C193.258 13.8485 192.524 13.4815 192.055 12.9844C191.591 12.4825 191.359 11.8551 191.359 11.1023C191.359 10.4867 191.532 9.94223 191.877 9.46875C192.228 8.99527 192.704 8.62358 193.305 8.35369C193.911 8.08381 194.597 7.94886 195.365 7.94886C196.444 7.94886 197.292 8.18561 197.907 8.65909C198.527 9.13258 198.968 9.75758 199.228 10.5341ZM201.95 23.0909V8.09091H203.569V9.82386H203.768C203.891 9.63447 204.062 9.39299 204.28 9.09943C204.502 8.80114 204.819 8.53598 205.231 8.30398C205.648 8.06723 206.211 7.94886 206.922 7.94886C207.84 7.94886 208.65 8.1785 209.351 8.63778C210.051 9.09706 210.598 9.74811 210.991 10.5909C211.384 11.4337 211.581 12.428 211.581 13.5739C211.581 14.7292 211.384 15.7306 210.991 16.5781C210.598 17.4209 210.054 18.0743 209.358 18.5384C208.662 18.9976 207.859 19.2273 206.95 19.2273C206.249 19.2273 205.688 19.1113 205.267 18.8793C204.845 18.6425 204.521 18.375 204.294 18.0767C204.067 17.7737 203.891 17.5227 203.768 17.3239H203.626V23.0909H201.95ZM203.598 13.5455C203.598 14.3693 203.719 15.0961 203.96 15.7259C204.202 16.3509 204.554 16.8409 205.018 17.196C205.482 17.5464 206.05 17.7216 206.723 17.7216C207.424 17.7216 208.008 17.5369 208.477 17.1676C208.951 16.7936 209.306 16.2917 209.542 15.6619C209.784 15.0275 209.905 14.322 209.905 13.5455C209.905 12.7784 209.786 12.0871 209.55 11.4716C209.318 10.8513 208.965 10.3613 208.491 10.0014C208.023 9.63684 207.433 9.45455 206.723 9.45455C206.041 9.45455 205.468 9.62737 205.004 9.97301C204.54 10.3139 204.19 10.7921 203.953 11.4077C203.716 12.0185 203.598 12.7311 203.598 13.5455ZM214.138 19V8.09091H215.814V19H214.138ZM214.99 6.27273C214.663 6.27273 214.381 6.16146 214.145 5.93892C213.913 5.71638 213.797 5.44886 213.797 5.13636C213.797 4.82386 213.913 4.55634 214.145 4.33381C214.381 4.11127 214.663 4 214.99 4C215.317 4 215.596 4.11127 215.828 4.33381C216.065 4.55634 216.183 4.82386 216.183 5.13636C216.183 5.44886 216.065 5.71638 215.828 5.93892C215.596 6.16146 215.317 6.27273 214.99 6.27273ZM218.884 19V8.09091H220.503V9.73864H220.617C220.816 9.19886 221.175 8.76089 221.696 8.42472C222.217 8.08854 222.804 7.92045 223.458 7.92045C223.581 7.92045 223.735 7.92282 223.919 7.92756C224.104 7.93229 224.244 7.93939 224.338 7.94886V9.65341C224.281 9.6392 224.151 9.6179 223.948 9.58949C223.749 9.55634 223.538 9.53977 223.316 9.53977C222.785 9.53977 222.312 9.65104 221.895 9.87358C221.483 10.0914 221.156 10.3944 220.915 10.7827C220.678 11.1662 220.56 11.6042 220.56 12.0966V19H218.884ZM229.535 19.2557C228.844 19.2557 228.217 19.1255 227.653 18.8651C227.09 18.5999 226.642 18.2188 226.311 17.7216C225.979 17.2197 225.814 16.6136 225.814 15.9034C225.814 15.2784 225.937 14.7718 226.183 14.3835C226.429 13.9905 226.758 13.6828 227.17 13.4602C227.582 13.2377 228.037 13.072 228.534 12.9631C229.036 12.8494 229.54 12.7595 230.047 12.6932C230.71 12.608 231.247 12.544 231.659 12.5014C232.076 12.4541 232.379 12.3759 232.568 12.267C232.762 12.1581 232.859 11.9687 232.859 11.6989V11.642C232.859 10.9413 232.667 10.3968 232.284 10.0085C231.905 9.62027 231.33 9.42614 230.558 9.42614C229.758 9.42614 229.131 9.60133 228.676 9.9517C228.221 10.3021 227.902 10.6761 227.717 11.0739L226.126 10.5057C226.41 9.8428 226.789 9.3267 227.263 8.95739C227.741 8.58333 228.262 8.32292 228.825 8.17614C229.393 8.02462 229.952 7.94886 230.501 7.94886C230.852 7.94886 231.254 7.99148 231.709 8.0767C232.168 8.1572 232.611 8.32528 233.037 8.58097C233.468 8.83665 233.825 9.22254 234.109 9.73864C234.393 10.2547 234.535 10.946 234.535 11.8125V19H232.859V17.5227H232.774C232.66 17.7595 232.471 18.0128 232.206 18.2827C231.941 18.5526 231.588 18.7822 231.148 18.9716C230.707 19.161 230.17 19.2557 229.535 19.2557ZM229.791 17.75C230.454 17.75 231.013 17.6198 231.467 17.3594C231.926 17.099 232.272 16.7628 232.504 16.3509C232.741 15.9389 232.859 15.5057 232.859 15.0511V13.517C232.788 13.6023 232.632 13.6804 232.39 13.7514C232.154 13.8177 231.879 13.8769 231.567 13.929C231.259 13.9763 230.958 14.0189 230.665 14.0568C230.376 14.09 230.141 14.1184 229.961 14.142C229.526 14.1989 229.119 14.2912 228.74 14.419C228.366 14.5421 228.063 14.7292 227.831 14.9801C227.604 15.2263 227.49 15.5625 227.49 15.9886C227.49 16.571 227.705 17.0114 228.136 17.3097C228.572 17.6032 229.123 17.75 229.791 17.75ZM239.271 12.4375V19H237.595V8.09091H239.214V9.79545H239.356C239.612 9.24148 240 8.7964 240.521 8.46023C241.042 8.11932 241.714 7.94886 242.538 7.94886C243.276 7.94886 243.923 8.10038 244.477 8.40341C245.031 8.7017 245.462 9.15625 245.769 9.76705C246.077 10.3731 246.231 11.1402 246.231 12.0682V19H244.555V12.1818C244.555 11.3248 244.332 10.6572 243.887 10.179C243.442 9.69602 242.831 9.45455 242.055 9.45455C241.52 9.45455 241.042 9.57055 240.62 9.80256C240.204 10.0346 239.874 10.3731 239.633 10.8182C239.392 11.2633 239.271 11.803 239.271 12.4375ZM254.038 8.09091V9.51136H248.385V8.09091H254.038ZM250.032 5.47727H251.709V15.875C251.709 16.3485 251.777 16.7036 251.915 16.9403C252.057 17.1723 252.237 17.3286 252.454 17.4091C252.677 17.4848 252.911 17.5227 253.157 17.5227C253.342 17.5227 253.494 17.5133 253.612 17.4943C253.73 17.4706 253.825 17.4517 253.896 17.4375L254.237 18.9432C254.123 18.9858 253.965 19.0284 253.761 19.071C253.558 19.1184 253.3 19.142 252.987 19.142C252.514 19.142 252.05 19.0402 251.595 18.8366C251.145 18.633 250.771 18.3229 250.473 17.9062C250.179 17.4896 250.032 16.964 250.032 16.3295V5.47727ZM261.016 19.2273C259.965 19.2273 259.058 18.9953 258.296 18.5312C257.538 18.0625 256.954 17.4091 256.542 16.571C256.135 15.7282 255.931 14.7481 255.931 13.6307C255.931 12.5133 256.135 11.5284 256.542 10.6761C256.954 9.81913 257.527 9.15152 258.26 8.6733C258.999 8.19034 259.861 7.94886 260.846 7.94886C261.414 7.94886 261.975 8.04356 262.529 8.23295C263.083 8.42235 263.587 8.73011 264.042 9.15625C264.496 9.57765 264.858 10.1364 265.128 10.8324C265.398 11.5284 265.533 12.3854 265.533 13.4034V14.1136H257.124V12.6648H263.829C263.829 12.0492 263.706 11.5 263.459 11.017C263.218 10.5341 262.872 10.1529 262.422 9.87358C261.977 9.59422 261.452 9.45455 260.846 9.45455C260.178 9.45455 259.6 9.62026 259.113 9.9517C258.63 10.2784 258.258 10.7045 257.998 11.2301C257.737 11.7557 257.607 12.3191 257.607 12.9205V13.8864C257.607 14.7102 257.749 15.4086 258.033 15.9815C258.322 16.5497 258.722 16.983 259.233 17.2812C259.745 17.5748 260.339 17.7216 261.016 17.7216C261.456 17.7216 261.854 17.66 262.209 17.5369C262.569 17.4091 262.879 17.2197 263.14 16.9688C263.4 16.7131 263.601 16.3958 263.743 16.017L265.363 16.4716C265.192 17.0208 264.906 17.5038 264.503 17.9205C264.101 18.3324 263.604 18.6544 263.012 18.8864C262.42 19.1136 261.755 19.2273 261.016 19.2273Z" fill="#5382A1"/>
<line x1="388.5" y1="106.027" x2="388.5" y2="31.0002" stroke="#3F627A" stroke-width="3" stroke-dasharray="10 10"/>
<circle cx="388.5" cy="106.5" r="17.3261" transform="rotate(-179.422 388.5 106.5)" fill="#3F627A"/>
<circle cx="253.5" cy="105.5" r="7.42547" transform="rotate(-179.422 253.5 105.5)" fill="#3F627A"/>
<circle cx="278.5" cy="105.5" r="7.42547" transform="rotate(-179.422 278.5 105.5)" fill="#3F627A"/>
<circle cx="278.5" cy="105.5" r="7.42547" transform="rotate(-179.422 278.5 105.5)" fill="#3F627A"/>
<circle cx="303.5" cy="105.5" r="7.42547" transform="rotate(-179.422 303.5 105.5)" fill="#3F627A"/>
<circle cx="303.5" cy="105.5" r="7.42547" transform="rotate(-179.422 303.5 105.5)" fill="#3F627A"/>
<circle cx="328.5" cy="105.5" r="7.42547" transform="rotate(-179.422 328.5 105.5)" fill="#3F627A"/>
<circle cx="328.5" cy="105.5" r="7.42547" transform="rotate(-179.422 328.5 105.5)" fill="#3F627A"/>
<circle cx="353.5" cy="105.5" r="7.42547" transform="rotate(-179.422 353.5 105.5)" fill="#3F627A"/>
<circle cx="353.5" cy="105.5" r="7.42547" transform="rotate(-179.422 353.5 105.5)" fill="#3F627A"/>
<path d="M351.816 4.45455V19H350.054V4.45455H351.816ZM356.796 12.4375V19H355.12V8.09091H356.739V9.79545H356.881C357.137 9.24148 357.525 8.7964 358.046 8.46023C358.567 8.11932 359.239 7.94886 360.063 7.94886C360.802 7.94886 361.448 8.10038 362.002 8.40341C362.556 8.7017 362.987 9.15625 363.295 9.76705C363.603 10.3731 363.756 11.1402 363.756 12.0682V19H362.08V12.1818C362.08 11.3248 361.858 10.6572 361.413 10.179C360.968 9.69602 360.357 9.45455 359.58 9.45455C359.045 9.45455 358.567 9.57055 358.146 9.80256C357.729 10.0346 357.4 10.3731 357.158 10.8182C356.917 11.2633 356.796 11.803 356.796 12.4375ZM366.819 19V8.09091H368.495V19H366.819ZM367.672 6.27273C367.345 6.27273 367.063 6.16146 366.826 5.93892C366.594 5.71638 366.478 5.44886 366.478 5.13636C366.478 4.82386 366.594 4.55634 366.826 4.33381C367.063 4.11127 367.345 4 367.672 4C367.998 4 368.278 4.11127 368.51 4.33381C368.746 4.55634 368.865 4.82386 368.865 5.13636C368.865 5.44886 368.746 5.71638 368.51 5.93892C368.278 6.16146 367.998 6.27273 367.672 6.27273ZM375.997 19.2273C374.974 19.2273 374.094 18.9858 373.355 18.5028C372.616 18.0199 372.048 17.3546 371.651 16.5071C371.253 15.6596 371.054 14.6913 371.054 13.6023C371.054 12.4943 371.258 11.5166 371.665 10.669C372.077 9.81676 372.65 9.15152 373.384 8.6733C374.122 8.19034 374.984 7.94886 375.969 7.94886C376.736 7.94886 377.427 8.09091 378.043 8.375C378.658 8.65909 379.162 9.05682 379.555 9.56818C379.948 10.0795 380.192 10.6761 380.287 11.358H378.611C378.483 10.8608 378.199 10.4205 377.759 10.0369C377.323 9.64867 376.736 9.45455 375.997 9.45455C375.344 9.45455 374.771 9.625 374.278 9.96591C373.791 10.3021 373.41 10.7779 373.135 11.3935C372.865 12.0043 372.73 12.7216 372.73 13.5455C372.73 14.3883 372.863 15.1222 373.128 15.7472C373.398 16.3722 373.777 16.8575 374.264 17.2031C374.757 17.5488 375.334 17.7216 375.997 17.7216C376.433 17.7216 376.828 17.6458 377.183 17.4943C377.538 17.3428 377.839 17.125 378.085 16.8409C378.331 16.5568 378.507 16.2159 378.611 15.8182H380.287C380.192 16.4621 379.958 17.0421 379.584 17.5582C379.214 18.0696 378.724 18.4768 378.114 18.7798C377.508 19.0781 376.802 19.2273 375.997 19.2273ZM382.737 19V8.09091H384.413V19H382.737ZM383.589 6.27273C383.263 6.27273 382.981 6.16146 382.744 5.93892C382.512 5.71638 382.396 5.44886 382.396 5.13636C382.396 4.82386 382.512 4.55634 382.744 4.33381C382.981 4.11127 383.263 4 383.589 4C383.916 4 384.196 4.11127 384.428 4.33381C384.664 4.55634 384.783 4.82386 384.783 5.13636C384.783 5.44886 384.664 5.71638 384.428 5.93892C384.196 6.16146 383.916 6.27273 383.589 6.27273ZM390.694 19.2557C390.002 19.2557 389.375 19.1255 388.811 18.8651C388.248 18.5999 387.801 18.2188 387.469 17.7216C387.138 17.2197 386.972 16.6136 386.972 15.9034C386.972 15.2784 387.095 14.7718 387.341 14.3835C387.587 13.9905 387.917 13.6828 388.328 13.4602C388.74 13.2377 389.195 13.072 389.692 12.9631C390.194 12.8494 390.698 12.7595 391.205 12.6932C391.868 12.608 392.405 12.544 392.817 12.5014C393.234 12.4541 393.537 12.3759 393.726 12.267C393.92 12.1581 394.017 11.9687 394.017 11.6989V11.642C394.017 10.9413 393.826 10.3968 393.442 10.0085C393.063 9.62027 392.488 9.42614 391.716 9.42614C390.916 9.42614 390.289 9.60133 389.834 9.9517C389.38 10.3021 389.06 10.6761 388.875 11.0739L387.284 10.5057C387.569 9.8428 387.947 9.3267 388.421 8.95739C388.899 8.58333 389.42 8.32292 389.983 8.17614C390.551 8.02462 391.11 7.94886 391.659 7.94886C392.01 7.94886 392.412 7.99148 392.867 8.0767C393.326 8.1572 393.769 8.32528 394.195 8.58097C394.626 8.83665 394.983 9.22254 395.267 9.73864C395.551 10.2547 395.694 10.946 395.694 11.8125V19H394.017V17.5227H393.932C393.819 17.7595 393.629 18.0128 393.364 18.2827C393.099 18.5526 392.746 18.7822 392.306 18.9716C391.865 19.161 391.328 19.2557 390.694 19.2557ZM390.949 17.75C391.612 17.75 392.171 17.6198 392.625 17.3594C393.085 17.099 393.43 16.7628 393.662 16.3509C393.899 15.9389 394.017 15.5057 394.017 15.0511V13.517C393.946 13.6023 393.79 13.6804 393.549 13.7514C393.312 13.8177 393.037 13.8769 392.725 13.929C392.417 13.9763 392.116 14.0189 391.823 14.0568C391.534 14.09 391.3 14.1184 391.12 14.142C390.684 14.1989 390.277 14.2912 389.898 14.419C389.524 14.5421 389.221 14.7292 388.989 14.9801C388.762 15.2263 388.648 15.5625 388.648 15.9886C388.648 16.571 388.864 17.0114 389.294 17.3097C389.73 17.6032 390.282 17.75 390.949 17.75ZM400.429 12.4375V19H398.753V8.09091H400.372V9.79545H400.514C400.77 9.24148 401.158 8.7964 401.679 8.46023C402.2 8.11932 402.872 7.94886 403.696 7.94886C404.435 7.94886 405.081 8.10038 405.635 8.40341C406.189 8.7017 406.62 9.15625 406.928 9.76705C407.235 10.3731 407.389 11.1402 407.389 12.0682V19H405.713V12.1818C405.713 11.3248 405.491 10.6572 405.045 10.179C404.6 9.69602 403.99 9.45455 403.213 9.45455C402.678 9.45455 402.2 9.57055 401.778 9.80256C401.362 10.0346 401.033 10.3731 400.791 10.8182C400.55 11.2633 400.429 11.803 400.429 12.4375ZM415.196 8.09091V9.51136H409.543V8.09091H415.196ZM411.191 5.47727H412.867V15.875C412.867 16.3485 412.935 16.7036 413.073 16.9403C413.215 17.1723 413.395 17.3286 413.613 17.4091C413.835 17.4848 414.069 17.5227 414.316 17.5227C414.5 17.5227 414.652 17.5133 414.77 17.4943C414.889 17.4706 414.983 17.4517 415.054 17.4375L415.395 18.9432C415.282 18.9858 415.123 19.0284 414.919 19.071C414.716 19.1184 414.458 19.142 414.145 19.142C413.672 19.142 413.208 19.0402 412.753 18.8366C412.303 18.633 411.929 18.3229 411.631 17.9062C411.337 17.4896 411.191 16.964 411.191 16.3295V5.47727ZM422.174 19.2273C421.123 19.2273 420.217 18.9953 419.454 18.5312C418.697 18.0625 418.112 17.4091 417.7 16.571C417.293 15.7282 417.089 14.7481 417.089 13.6307C417.089 12.5133 417.293 11.5284 417.7 10.6761C418.112 9.81913 418.685 9.15152 419.419 8.6733C420.157 8.19034 421.019 7.94886 422.004 7.94886C422.572 7.94886 423.133 8.04356 423.687 8.23295C424.241 8.42235 424.745 8.73011 425.2 9.15625C425.654 9.57765 426.017 10.1364 426.287 10.8324C426.556 11.5284 426.691 12.3854 426.691 13.4034V14.1136H418.282V12.6648H424.987C424.987 12.0492 424.864 11.5 424.618 11.017C424.376 10.5341 424.03 10.1529 423.581 9.87358C423.136 9.59422 422.61 9.45455 422.004 9.45455C421.336 9.45455 420.759 9.62026 420.271 9.9517C419.788 10.2784 419.416 10.7045 419.156 11.2301C418.895 11.7557 418.765 12.3191 418.765 12.9205V13.8864C418.765 14.7102 418.907 15.4086 419.191 15.9815C419.48 16.5497 419.88 16.983 420.392 17.2812C420.903 17.5748 421.497 17.7216 422.174 17.7216C422.615 17.7216 423.012 17.66 423.368 17.5369C423.727 17.4091 424.038 17.2197 424.298 16.9688C424.558 16.7131 424.76 16.3958 424.902 16.017L426.521 16.4716C426.35 17.0208 426.064 17.5038 425.662 17.9205C425.259 18.3324 424.762 18.6544 424.17 18.8864C423.578 19.1136 422.913 19.2273 422.174 19.2273Z" fill="#5382A1"/>
<line x1="558.5" y1="106.027" x2="558.5" y2="31.0002" stroke="#3F627A" stroke-width="3" stroke-dasharray="10 10"/>
<circle cx="558.5" cy="106.5" r="17.3261" transform="rotate(-179.422 558.5 106.5)" fill="#3F627A"/>
<circle cx="423.5" cy="105.5" r="7.42547" transform="rotate(-179.422 423.5 105.5)" fill="#3F627A"/>
<circle cx="498.5" cy="105.5" r="7.42547" transform="rotate(-179.422 498.5 105.5)" fill="#3F627A"/>
<circle cx="498.5" cy="105.5" r="7.42547" transform="rotate(-179.422 498.5 105.5)" fill="#3F627A"/>
<circle cx="523.5" cy="105.5" r="7.42547" transform="rotate(-179.422 523.5 105.5)" fill="#3F627A"/>
<circle cx="523.5" cy="105.5" r="7.42547" transform="rotate(-179.422 523.5 105.5)" fill="#3F627A"/>
<circle cx="448.5" cy="105.5" r="7.42547" transform="rotate(-179.422 448.5 105.5)" fill="#3F627A"/>
<circle cx="448.5" cy="105.5" r="7.42547" transform="rotate(-179.422 448.5 105.5)" fill="#3F627A"/>
<circle cx="593.5" cy="105.5" r="7.42547" transform="rotate(-179.422 593.5 105.5)" fill="#3F627A"/>
<circle cx="618.5" cy="105.5" r="7.42547" transform="rotate(-179.422 618.5 105.5)" fill="#3F627A"/>
<circle cx="618.5" cy="105.5" r="7.42547" transform="rotate(-179.422 618.5 105.5)" fill="#3F627A"/>
<circle cx="643.5" cy="105.5" r="7.42547" transform="rotate(-179.422 643.5 105.5)" fill="#3F627A"/>
<circle cx="643.5" cy="105.5" r="7.42547" transform="rotate(-179.422 643.5 105.5)" fill="#3F627A"/>
<circle cx="668.5" cy="105.5" r="7.42547" transform="rotate(-179.422 668.5 105.5)" fill="#3F627A"/>
<circle cx="668.5" cy="105.5" r="7.42547" transform="rotate(-179.422 668.5 105.5)" fill="#3F627A"/>
<circle cx="693.5" cy="105.5" r="7.42547" transform="rotate(-179.422 693.5 105.5)" fill="#3F627A"/>
<circle cx="693.5" cy="105.5" r="7.42547" transform="rotate(-179.422 693.5 105.5)" fill="#3F627A"/>
<path d="M536.679 4.45455H538.441V14.8523C538.441 15.7803 538.27 16.5687 537.929 17.2173C537.588 17.866 537.108 18.3584 536.487 18.6946C535.867 19.0308 535.136 19.1989 534.293 19.1989C533.497 19.1989 532.789 19.0545 532.169 18.7656C531.549 18.4721 531.061 18.0554 530.706 17.5156C530.351 16.9759 530.173 16.3343 530.173 15.5909H531.906C531.906 16.0028 532.008 16.3627 532.212 16.6705C532.42 16.9735 532.704 17.2102 533.064 17.3807C533.424 17.5511 533.834 17.6364 534.293 17.6364C534.799 17.6364 535.23 17.5298 535.585 17.3168C535.941 17.1037 536.21 16.7912 536.395 16.3793C536.584 15.9626 536.679 15.4536 536.679 14.8523V4.45455ZM548.618 14.5398V8.09091H550.294V19H548.618V17.1534H548.504C548.249 17.7074 547.851 18.1785 547.311 18.5668C546.771 18.9503 546.09 19.142 545.266 19.142C544.584 19.142 543.978 18.9929 543.448 18.6946C542.917 18.3916 542.501 17.937 542.198 17.331C541.895 16.7202 541.743 15.9508 541.743 15.0227V8.09091H543.419V14.9091C543.419 15.7045 543.642 16.339 544.087 16.8125C544.537 17.286 545.11 17.5227 545.806 17.5227C546.222 17.5227 546.646 17.4162 547.077 17.2031C547.512 16.9901 547.877 16.6634 548.171 16.223C548.469 15.7827 548.618 15.2216 548.618 14.5398ZM555.04 12.4375V19H553.364V8.09091H554.983V9.79545H555.126C555.381 9.24148 555.769 8.7964 556.29 8.46023C556.811 8.11932 557.483 7.94886 558.307 7.94886C559.046 7.94886 559.692 8.10038 560.246 8.40341C560.8 8.7017 561.231 9.15625 561.539 9.76705C561.847 10.3731 562.001 11.1402 562.001 12.0682V19H560.324V12.1818C560.324 11.3248 560.102 10.6572 559.657 10.179C559.212 9.69602 558.601 9.45455 557.824 9.45455C557.289 9.45455 556.811 9.57055 556.39 9.80256C555.973 10.0346 555.644 10.3731 555.403 10.8182C555.161 11.2633 555.04 11.803 555.04 12.4375ZM565.063 19V8.09091H566.74V19H565.063ZM565.916 6.27273C565.589 6.27273 565.307 6.16146 565.07 5.93892C564.838 5.71638 564.722 5.44886 564.722 5.13636C564.722 4.82386 564.838 4.55634 565.07 4.33381C565.307 4.11127 565.589 4 565.916 4C566.242 4 566.522 4.11127 566.754 4.33381C566.99 4.55634 567.109 4.82386 567.109 5.13636C567.109 5.44886 566.99 5.71638 566.754 5.93892C566.522 6.16146 566.242 6.27273 565.916 6.27273ZM574.241 19.2273C573.256 19.2273 572.392 18.9929 571.649 18.5241C570.91 18.0554 570.333 17.3996 569.916 16.5568C569.504 15.714 569.298 14.7292 569.298 13.6023C569.298 12.4659 569.504 11.474 569.916 10.6264C570.333 9.77888 570.91 9.12074 571.649 8.65199C572.392 8.18324 573.256 7.94886 574.241 7.94886C575.226 7.94886 576.088 8.18324 576.827 8.65199C577.57 9.12074 578.148 9.77888 578.559 10.6264C578.976 11.474 579.184 12.4659 579.184 13.6023C579.184 14.7292 578.976 15.714 578.559 16.5568C578.148 17.3996 577.57 18.0554 576.827 18.5241C576.088 18.9929 575.226 19.2273 574.241 19.2273ZM574.241 17.7216C574.989 17.7216 575.605 17.5298 576.088 17.1463C576.571 16.7628 576.928 16.2585 577.16 15.6335C577.392 15.0085 577.508 14.3314 577.508 13.6023C577.508 12.8731 577.392 12.1937 577.16 11.5639C576.928 10.9342 576.571 10.4252 576.088 10.0369C575.605 9.64867 574.989 9.45455 574.241 9.45455C573.493 9.45455 572.878 9.64867 572.395 10.0369C571.912 10.4252 571.554 10.9342 571.322 11.5639C571.09 12.1937 570.974 12.8731 570.974 13.6023C570.974 14.3314 571.09 15.0085 571.322 15.6335C571.554 16.2585 571.912 16.7628 572.395 17.1463C572.878 17.5298 573.493 17.7216 574.241 17.7216ZM581.743 19V8.09091H583.362V9.73864H583.476C583.675 9.19886 584.035 8.76089 584.556 8.42472C585.076 8.08854 585.664 7.92045 586.317 7.92045C586.44 7.92045 586.594 7.92282 586.779 7.92756C586.963 7.93229 587.103 7.93939 587.198 7.94886V9.65341C587.141 9.6392 587.011 9.6179 586.807 9.58949C586.608 9.55634 586.397 9.53977 586.175 9.53977C585.645 9.53977 585.171 9.65104 584.754 9.87358C584.343 10.0914 584.016 10.3944 583.774 10.7827C583.538 11.1662 583.419 11.6042 583.419 12.0966V19H581.743Z" fill="#5382A1"/>
<path d="M727.5 105.504L712.493 96.8549L712.506 114.175L727.5 105.504ZM83.0011 107.484L714.001 107.014L713.999 104.014L82.9989 104.484L83.0011 107.484Z" fill="#3F627A"/>
<circle cx="473.5" cy="105.5" r="7.42547" transform="rotate(-179.422 473.5 105.5)" fill="#3F627A"/>
<path d="M414.292 70V56H421.472V58.4H417.032V61.74H420.992V64.06H417.032V67.68H421.552V70H414.292ZM426.561 67.68H428.241C428.534 67.36 428.741 67.04 428.861 66.72C428.994 66.3867 429.061 65.9 429.061 65.26V56H431.801V64.26C431.801 64.94 431.781 65.4733 431.741 65.86C431.714 66.2333 431.634 66.6933 431.501 67.24C431.274 68.2133 430.647 69.1333 429.621 70H425.181C424.154 69.16 423.527 68.24 423.301 67.24C423.101 66.4267 423.001 65.4333 423.001 64.26V56H425.741V65.26C425.741 65.9 425.801 66.3867 425.921 66.72C426.054 67.04 426.267 67.36 426.561 67.68Z" fill="white"/>
<line x1="424.501" y1="106.05" x2="423.501" y2="76.05" stroke="#F5F5F5" stroke-width="3" stroke-dasharray="10 10"/>
<circle cx="423.5" cy="105.5" r="7.42547" transform="rotate(-179.422 423.5 105.5)" fill="white"/>
</svg>
