<svg width="720" height="124" viewBox="0 0 720 124" fill="none" xmlns="http://www.w3.org/2000/svg">
<path d="M0 74H50V124H0V74Z" fill="#F7DF1E"/>
<path d="M13.1469 115.783L16.973 113.468C17.7113 114.777 18.3828 115.884 19.9935 115.884C21.5375 115.884 22.5111 115.28 22.5111 112.931V96.9548H27.2098V112.997C27.2098 117.864 24.357 120.079 20.1949 120.079C16.4361 120.079 14.2543 118.133 13.1467 115.783M29.7619 115.28L33.5877 113.065C34.5949 114.71 35.9039 115.918 38.2195 115.918C40.1666 115.918 41.408 114.944 41.408 113.602C41.408 111.991 40.1326 111.42 37.9846 110.481L36.8101 109.977C33.4201 108.534 31.1715 106.722 31.1715 102.895C31.1715 99.3712 33.8564 96.686 38.0519 96.686C41.0391 96.686 43.1871 97.7267 44.7308 100.445L41.0723 102.795C40.2666 101.352 39.3943 100.781 38.0517 100.781C36.6756 100.781 35.8029 101.654 35.8029 102.795C35.8029 104.204 36.6756 104.775 38.6892 105.648L39.8639 106.151C43.858 107.863 46.1066 109.608 46.1066 113.535C46.1066 117.764 42.784 120.08 38.3201 120.08C33.957 120.08 31.1377 117.999 29.7617 115.28" fill="black"/>
<line x1="210.5" y1="106.026" x2="210.5" y2="30.9997" stroke="#F7DF1E" stroke-width="3" stroke-dasharray="10 10"/>
<circle cx="210.5" cy="106.5" r="17.3261" transform="rotate(-179.422 210.5 106.5)" fill="#F7DF1E"/>
<circle cx="175.5" cy="105.5" r="7.42547" transform="rotate(-179.422 175.5 105.5)" fill="#F7DF1E"/>
<circle cx="175.5" cy="105.5" r="7.42547" transform="rotate(-179.422 175.5 105.5)" fill="#F7DF1E"/>
<circle cx="150.5" cy="105.5" r="7.42547" transform="rotate(-179.422 150.5 105.5)" fill="#F7DF1E"/>
<circle cx="150.5" cy="105.5" r="7.42547" transform="rotate(-179.422 150.5 105.5)" fill="#F7DF1E"/>
<circle cx="125.5" cy="105.5" r="7.42547" transform="rotate(-179.422 125.5 105.5)" fill="#F7DF1E"/>
<circle cx="125.5" cy="105.5" r="7.42547" transform="rotate(-179.422 125.5 105.5)" fill="#F7DF1E"/>
<circle cx="100.5" cy="105.5" r="7.42547" transform="rotate(-179.422 100.5 105.5)" fill="#F7DF1E"/>
<circle cx="100.5" cy="105.5" r="7.42547" transform="rotate(-179.422 100.5 105.5)" fill="#F7DF1E"/>
<circle cx="75.4999" cy="105.5" r="7.42547" transform="rotate(-179.422 75.4999 105.5)" fill="#F7DF1E"/>
<circle cx="75.4999" cy="105.5" r="7.42547" transform="rotate(-179.422 75.4999 105.5)" fill="#F7DF1E"/>
<path d="M170.809 19H168.963L174.303 4.45455H176.122L181.463 19H179.616L175.269 6.75568H175.156L170.809 19ZM171.491 13.3182H178.934V14.8807H171.491V13.3182ZM191.228 10.5341L189.722 10.9602C189.628 10.7093 189.488 10.4654 189.303 10.2287C189.124 9.98722 188.877 9.78835 188.565 9.6321C188.252 9.47585 187.852 9.39773 187.365 9.39773C186.697 9.39773 186.141 9.55161 185.695 9.85938C185.255 10.1624 185.035 10.5483 185.035 11.017C185.035 11.4337 185.186 11.7628 185.49 12.0043C185.793 12.2457 186.266 12.447 186.91 12.608L188.529 13.0057C189.505 13.2424 190.231 13.6046 190.71 14.0923C191.188 14.5753 191.427 15.1979 191.427 15.9602C191.427 16.5852 191.247 17.1439 190.887 17.6364C190.532 18.1288 190.035 18.517 189.396 18.8011C188.757 19.0852 188.013 19.2273 187.166 19.2273C186.053 19.2273 185.132 18.9858 184.403 18.5028C183.674 18.0199 183.212 17.3144 183.018 16.3864L184.609 15.9886C184.76 16.5758 185.047 17.0161 185.468 17.3097C185.894 17.6032 186.451 17.75 187.137 17.75C187.919 17.75 188.539 17.5843 188.998 17.2528C189.462 16.9167 189.694 16.5142 189.694 16.0455C189.694 15.6667 189.561 15.3494 189.296 15.0938C189.031 14.8333 188.624 14.6392 188.075 14.5114L186.257 14.0852C185.258 13.8485 184.524 13.4815 184.055 12.9844C183.591 12.4825 183.359 11.8551 183.359 11.1023C183.359 10.4867 183.532 9.94223 183.877 9.46875C184.228 8.99527 184.704 8.62358 185.305 8.35369C185.911 8.08381 186.597 7.94886 187.365 7.94886C188.444 7.94886 189.292 8.18561 189.907 8.65909C190.527 9.13258 190.968 9.75758 191.228 10.5341ZM193.95 23.0909V8.09091H195.569V9.82386H195.768C195.891 9.63447 196.062 9.39299 196.28 9.09943C196.502 8.80114 196.819 8.53598 197.231 8.30398C197.648 8.06723 198.211 7.94886 198.922 7.94886C199.84 7.94886 200.65 8.1785 201.351 8.63778C202.051 9.09706 202.598 9.74811 202.991 10.5909C203.384 11.4337 203.581 12.428 203.581 13.5739C203.581 14.7292 203.384 15.7306 202.991 16.5781C202.598 17.4209 202.054 18.0743 201.358 18.5384C200.662 18.9976 199.859 19.2273 198.95 19.2273C198.249 19.2273 197.688 19.1113 197.267 18.8793C196.845 18.6425 196.521 18.375 196.294 18.0767C196.067 17.7737 195.891 17.5227 195.768 17.3239H195.626V23.0909H193.95ZM195.598 13.5455C195.598 14.3693 195.719 15.0961 195.96 15.7259C196.202 16.3509 196.554 16.8409 197.018 17.196C197.482 17.5464 198.05 17.7216 198.723 17.7216C199.424 17.7216 200.008 17.5369 200.477 17.1676C200.951 16.7936 201.306 16.2917 201.542 15.6619C201.784 15.0275 201.905 14.322 201.905 13.5455C201.905 12.7784 201.786 12.0871 201.55 11.4716C201.318 10.8513 200.965 10.3613 200.491 10.0014C200.023 9.63684 199.433 9.45455 198.723 9.45455C198.041 9.45455 197.468 9.62737 197.004 9.97301C196.54 10.3139 196.19 10.7921 195.953 11.4077C195.716 12.0185 195.598 12.7311 195.598 13.5455ZM206.138 19V8.09091H207.814V19H206.138ZM206.99 6.27273C206.663 6.27273 206.381 6.16146 206.145 5.93892C205.913 5.71638 205.797 5.44886 205.797 5.13636C205.797 4.82386 205.913 4.55634 206.145 4.33381C206.381 4.11127 206.663 4 206.99 4C207.317 4 207.596 4.11127 207.828 4.33381C208.065 4.55634 208.183 4.82386 208.183 5.13636C208.183 5.44886 208.065 5.71638 207.828 5.93892C207.596 6.16146 207.317 6.27273 206.99 6.27273ZM210.884 19V8.09091H212.503V9.73864H212.617C212.816 9.19886 213.175 8.76089 213.696 8.42472C214.217 8.08854 214.804 7.92045 215.458 7.92045C215.581 7.92045 215.735 7.92282 215.919 7.92756C216.104 7.93229 216.244 7.93939 216.338 7.94886V9.65341C216.281 9.6392 216.151 9.6179 215.948 9.58949C215.749 9.55634 215.538 9.53977 215.316 9.53977C214.785 9.53977 214.312 9.65104 213.895 9.87358C213.483 10.0914 213.156 10.3944 212.915 10.7827C212.678 11.1662 212.56 11.6042 212.56 12.0966V19H210.884ZM221.535 19.2557C220.844 19.2557 220.217 19.1255 219.653 18.8651C219.09 18.5999 218.642 18.2188 218.311 17.7216C217.979 17.2197 217.814 16.6136 217.814 15.9034C217.814 15.2784 217.937 14.7718 218.183 14.3835C218.429 13.9905 218.758 13.6828 219.17 13.4602C219.582 13.2377 220.037 13.072 220.534 12.9631C221.036 12.8494 221.54 12.7595 222.047 12.6932C222.71 12.608 223.247 12.544 223.659 12.5014C224.076 12.4541 224.379 12.3759 224.568 12.267C224.762 12.1581 224.859 11.9687 224.859 11.6989V11.642C224.859 10.9413 224.667 10.3968 224.284 10.0085C223.905 9.62027 223.33 9.42614 222.558 9.42614C221.758 9.42614 221.131 9.60133 220.676 9.9517C220.221 10.3021 219.902 10.6761 219.717 11.0739L218.126 10.5057C218.41 9.8428 218.789 9.3267 219.263 8.95739C219.741 8.58333 220.262 8.32292 220.825 8.17614C221.393 8.02462 221.952 7.94886 222.501 7.94886C222.852 7.94886 223.254 7.99148 223.709 8.0767C224.168 8.1572 224.611 8.32528 225.037 8.58097C225.468 8.83665 225.825 9.22254 226.109 9.73864C226.393 10.2547 226.535 10.946 226.535 11.8125V19H224.859V17.5227H224.774C224.66 17.7595 224.471 18.0128 224.206 18.2827C223.941 18.5526 223.588 18.7822 223.148 18.9716C222.707 19.161 222.17 19.2557 221.535 19.2557ZM221.791 17.75C222.454 17.75 223.013 17.6198 223.467 17.3594C223.926 17.099 224.272 16.7628 224.504 16.3509C224.741 15.9389 224.859 15.5057 224.859 15.0511V13.517C224.788 13.6023 224.632 13.6804 224.39 13.7514C224.154 13.8177 223.879 13.8769 223.567 13.929C223.259 13.9763 222.958 14.0189 222.665 14.0568C222.376 14.09 222.141 14.1184 221.961 14.142C221.526 14.1989 221.119 14.2912 220.74 14.419C220.366 14.5421 220.063 14.7292 219.831 14.9801C219.604 15.2263 219.49 15.5625 219.49 15.9886C219.49 16.571 219.705 17.0114 220.136 17.3097C220.572 17.6032 221.123 17.75 221.791 17.75ZM231.271 12.4375V19H229.595V8.09091H231.214V9.79545H231.356C231.612 9.24148 232 8.7964 232.521 8.46023C233.042 8.11932 233.714 7.94886 234.538 7.94886C235.276 7.94886 235.923 8.10038 236.477 8.40341C237.031 8.7017 237.462 9.15625 237.769 9.76705C238.077 10.3731 238.231 11.1402 238.231 12.0682V19H236.555V12.1818C236.555 11.3248 236.332 10.6572 235.887 10.179C235.442 9.69602 234.831 9.45455 234.055 9.45455C233.52 9.45455 233.042 9.57055 232.62 9.80256C232.204 10.0346 231.874 10.3731 231.633 10.8182C231.392 11.2633 231.271 11.803 231.271 12.4375ZM246.038 8.09091V9.51136H240.385V8.09091H246.038ZM242.032 5.47727H243.709V15.875C243.709 16.3485 243.777 16.7036 243.915 16.9403C244.057 17.1723 244.237 17.3286 244.454 17.4091C244.677 17.4848 244.911 17.5227 245.157 17.5227C245.342 17.5227 245.494 17.5133 245.612 17.4943C245.73 17.4706 245.825 17.4517 245.896 17.4375L246.237 18.9432C246.123 18.9858 245.965 19.0284 245.761 19.071C245.558 19.1184 245.3 19.142 244.987 19.142C244.514 19.142 244.05 19.0402 243.595 18.8366C243.145 18.633 242.771 18.3229 242.473 17.9062C242.179 17.4896 242.032 16.964 242.032 16.3295V5.47727ZM253.016 19.2273C251.965 19.2273 251.058 18.9953 250.296 18.5312C249.538 18.0625 248.954 17.4091 248.542 16.571C248.135 15.7282 247.931 14.7481 247.931 13.6307C247.931 12.5133 248.135 11.5284 248.542 10.6761C248.954 9.81913 249.527 9.15152 250.26 8.6733C250.999 8.19034 251.861 7.94886 252.846 7.94886C253.414 7.94886 253.975 8.04356 254.529 8.23295C255.083 8.42235 255.587 8.73011 256.042 9.15625C256.496 9.57765 256.858 10.1364 257.128 10.8324C257.398 11.5284 257.533 12.3854 257.533 13.4034V14.1136H249.124V12.6648H255.829C255.829 12.0492 255.706 11.5 255.459 11.017C255.218 10.5341 254.872 10.1529 254.422 9.87358C253.977 9.59422 253.452 9.45455 252.846 9.45455C252.178 9.45455 251.6 9.62026 251.113 9.9517C250.63 10.2784 250.258 10.7045 249.998 11.2301C249.737 11.7557 249.607 12.3191 249.607 12.9205V13.8864C249.607 14.7102 249.749 15.4086 250.033 15.9815C250.322 16.5497 250.722 16.983 251.233 17.2812C251.745 17.5748 252.339 17.7216 253.016 17.7216C253.456 17.7216 253.854 17.66 254.209 17.5369C254.569 17.4091 254.879 17.2197 255.14 16.9688C255.4 16.7131 255.601 16.3958 255.743 16.017L257.363 16.4716C257.192 17.0208 256.906 17.5038 256.503 17.9205C256.101 18.3324 255.604 18.6544 255.012 18.8864C254.42 19.1136 253.755 19.2273 253.016 19.2273Z" fill="#F7DF1E"/>
<line x1="380.5" y1="106.027" x2="380.5" y2="31.0002" stroke="#F7DF1E" stroke-width="3" stroke-dasharray="10 10"/>
<circle cx="380.5" cy="106.5" r="17.3261" transform="rotate(-179.422 380.5 106.5)" fill="#F7DF1E"/>
<circle cx="245.5" cy="105.5" r="7.42547" transform="rotate(-179.422 245.5 105.5)" fill="#F7DF1E"/>
<circle cx="270.5" cy="105.5" r="7.42547" transform="rotate(-179.422 270.5 105.5)" fill="#F7DF1E"/>
<circle cx="270.5" cy="105.5" r="7.42547" transform="rotate(-179.422 270.5 105.5)" fill="#F7DF1E"/>
<circle cx="295.5" cy="105.5" r="7.42547" transform="rotate(-179.422 295.5 105.5)" fill="#F7DF1E"/>
<circle cx="295.5" cy="105.5" r="7.42547" transform="rotate(-179.422 295.5 105.5)" fill="#F7DF1E"/>
<circle cx="320.5" cy="105.5" r="7.42547" transform="rotate(-179.422 320.5 105.5)" fill="#F7DF1E"/>
<circle cx="320.5" cy="105.5" r="7.42547" transform="rotate(-179.422 320.5 105.5)" fill="#F7DF1E"/>
<circle cx="345.5" cy="105.5" r="7.42547" transform="rotate(-179.422 345.5 105.5)" fill="#F7DF1E"/>
<circle cx="345.5" cy="105.5" r="7.42547" transform="rotate(-179.422 345.5 105.5)" fill="#F7DF1E"/>
<path d="M343.816 4.45455V19H342.054V4.45455H343.816ZM348.796 12.4375V19H347.12V8.09091H348.739V9.79545H348.881C349.137 9.24148 349.525 8.7964 350.046 8.46023C350.567 8.11932 351.239 7.94886 352.063 7.94886C352.802 7.94886 353.448 8.10038 354.002 8.40341C354.556 8.7017 354.987 9.15625 355.295 9.76705C355.603 10.3731 355.756 11.1402 355.756 12.0682V19H354.08V12.1818C354.08 11.3248 353.858 10.6572 353.413 10.179C352.968 9.69602 352.357 9.45455 351.58 9.45455C351.045 9.45455 350.567 9.57055 350.146 9.80256C349.729 10.0346 349.4 10.3731 349.158 10.8182C348.917 11.2633 348.796 11.803 348.796 12.4375ZM358.819 19V8.09091H360.495V19H358.819ZM359.672 6.27273C359.345 6.27273 359.063 6.16146 358.826 5.93892C358.594 5.71638 358.478 5.44886 358.478 5.13636C358.478 4.82386 358.594 4.55634 358.826 4.33381C359.063 4.11127 359.345 4 359.672 4C359.998 4 360.278 4.11127 360.51 4.33381C360.746 4.55634 360.865 4.82386 360.865 5.13636C360.865 5.44886 360.746 5.71638 360.51 5.93892C360.278 6.16146 359.998 6.27273 359.672 6.27273ZM367.997 19.2273C366.974 19.2273 366.094 18.9858 365.355 18.5028C364.616 18.0199 364.048 17.3546 363.651 16.5071C363.253 15.6596 363.054 14.6913 363.054 13.6023C363.054 12.4943 363.258 11.5166 363.665 10.669C364.077 9.81676 364.65 9.15152 365.384 8.6733C366.122 8.19034 366.984 7.94886 367.969 7.94886C368.736 7.94886 369.427 8.09091 370.043 8.375C370.658 8.65909 371.162 9.05682 371.555 9.56818C371.948 10.0795 372.192 10.6761 372.287 11.358H370.611C370.483 10.8608 370.199 10.4205 369.759 10.0369C369.323 9.64867 368.736 9.45455 367.997 9.45455C367.344 9.45455 366.771 9.625 366.278 9.96591C365.791 10.3021 365.41 10.7779 365.135 11.3935C364.865 12.0043 364.73 12.7216 364.73 13.5455C364.73 14.3883 364.863 15.1222 365.128 15.7472C365.398 16.3722 365.777 16.8575 366.264 17.2031C366.757 17.5488 367.334 17.7216 367.997 17.7216C368.433 17.7216 368.828 17.6458 369.183 17.4943C369.538 17.3428 369.839 17.125 370.085 16.8409C370.331 16.5568 370.507 16.2159 370.611 15.8182H372.287C372.192 16.4621 371.958 17.0421 371.584 17.5582C371.214 18.0696 370.724 18.4768 370.114 18.7798C369.508 19.0781 368.802 19.2273 367.997 19.2273ZM374.737 19V8.09091H376.413V19H374.737ZM375.589 6.27273C375.263 6.27273 374.981 6.16146 374.744 5.93892C374.512 5.71638 374.396 5.44886 374.396 5.13636C374.396 4.82386 374.512 4.55634 374.744 4.33381C374.981 4.11127 375.263 4 375.589 4C375.916 4 376.196 4.11127 376.428 4.33381C376.664 4.55634 376.783 4.82386 376.783 5.13636C376.783 5.44886 376.664 5.71638 376.428 5.93892C376.196 6.16146 375.916 6.27273 375.589 6.27273ZM382.694 19.2557C382.002 19.2557 381.375 19.1255 380.811 18.8651C380.248 18.5999 379.801 18.2188 379.469 17.7216C379.138 17.2197 378.972 16.6136 378.972 15.9034C378.972 15.2784 379.095 14.7718 379.341 14.3835C379.587 13.9905 379.917 13.6828 380.328 13.4602C380.74 13.2377 381.195 13.072 381.692 12.9631C382.194 12.8494 382.698 12.7595 383.205 12.6932C383.868 12.608 384.405 12.544 384.817 12.5014C385.234 12.4541 385.537 12.3759 385.726 12.267C385.92 12.1581 386.017 11.9687 386.017 11.6989V11.642C386.017 10.9413 385.826 10.3968 385.442 10.0085C385.063 9.62027 384.488 9.42614 383.716 9.42614C382.916 9.42614 382.289 9.60133 381.834 9.9517C381.38 10.3021 381.06 10.6761 380.875 11.0739L379.284 10.5057C379.569 9.8428 379.947 9.3267 380.421 8.95739C380.899 8.58333 381.42 8.32292 381.983 8.17614C382.551 8.02462 383.11 7.94886 383.659 7.94886C384.01 7.94886 384.412 7.99148 384.867 8.0767C385.326 8.1572 385.769 8.32528 386.195 8.58097C386.626 8.83665 386.983 9.22254 387.267 9.73864C387.551 10.2547 387.694 10.946 387.694 11.8125V19H386.017V17.5227H385.932C385.819 17.7595 385.629 18.0128 385.364 18.2827C385.099 18.5526 384.746 18.7822 384.306 18.9716C383.865 19.161 383.328 19.2557 382.694 19.2557ZM382.949 17.75C383.612 17.75 384.171 17.6198 384.625 17.3594C385.085 17.099 385.43 16.7628 385.662 16.3509C385.899 15.9389 386.017 15.5057 386.017 15.0511V13.517C385.946 13.6023 385.79 13.6804 385.549 13.7514C385.312 13.8177 385.037 13.8769 384.725 13.929C384.417 13.9763 384.116 14.0189 383.823 14.0568C383.534 14.09 383.3 14.1184 383.12 14.142C382.684 14.1989 382.277 14.2912 381.898 14.419C381.524 14.5421 381.221 14.7292 380.989 14.9801C380.762 15.2263 380.648 15.5625 380.648 15.9886C380.648 16.571 380.864 17.0114 381.294 17.3097C381.73 17.6032 382.282 17.75 382.949 17.75ZM392.429 12.4375V19H390.753V8.09091H392.372V9.79545H392.514C392.77 9.24148 393.158 8.7964 393.679 8.46023C394.2 8.11932 394.872 7.94886 395.696 7.94886C396.435 7.94886 397.081 8.10038 397.635 8.40341C398.189 8.7017 398.62 9.15625 398.928 9.76705C399.235 10.3731 399.389 11.1402 399.389 12.0682V19H397.713V12.1818C397.713 11.3248 397.491 10.6572 397.045 10.179C396.6 9.69602 395.99 9.45455 395.213 9.45455C394.678 9.45455 394.2 9.57055 393.778 9.80256C393.362 10.0346 393.033 10.3731 392.791 10.8182C392.55 11.2633 392.429 11.803 392.429 12.4375ZM407.196 8.09091V9.51136H401.543V8.09091H407.196ZM403.191 5.47727H404.867V15.875C404.867 16.3485 404.935 16.7036 405.073 16.9403C405.215 17.1723 405.395 17.3286 405.613 17.4091C405.835 17.4848 406.069 17.5227 406.316 17.5227C406.5 17.5227 406.652 17.5133 406.77 17.4943C406.889 17.4706 406.983 17.4517 407.054 17.4375L407.395 18.9432C407.282 18.9858 407.123 19.0284 406.919 19.071C406.716 19.1184 406.458 19.142 406.145 19.142C405.672 19.142 405.208 19.0402 404.753 18.8366C404.303 18.633 403.929 18.3229 403.631 17.9062C403.337 17.4896 403.191 16.964 403.191 16.3295V5.47727ZM414.174 19.2273C413.123 19.2273 412.217 18.9953 411.454 18.5312C410.697 18.0625 410.112 17.4091 409.7 16.571C409.293 15.7282 409.089 14.7481 409.089 13.6307C409.089 12.5133 409.293 11.5284 409.7 10.6761C410.112 9.81913 410.685 9.15152 411.419 8.6733C412.157 8.19034 413.019 7.94886 414.004 7.94886C414.572 7.94886 415.133 8.04356 415.687 8.23295C416.241 8.42235 416.745 8.73011 417.2 9.15625C417.654 9.57765 418.017 10.1364 418.287 10.8324C418.556 11.5284 418.691 12.3854 418.691 13.4034V14.1136H410.282V12.6648H416.987C416.987 12.0492 416.864 11.5 416.618 11.017C416.376 10.5341 416.03 10.1529 415.581 9.87358C415.136 9.59422 414.61 9.45455 414.004 9.45455C413.336 9.45455 412.759 9.62026 412.271 9.9517C411.788 10.2784 411.416 10.7045 411.156 11.2301C410.895 11.7557 410.765 12.3191 410.765 12.9205V13.8864C410.765 14.7102 410.907 15.4086 411.191 15.9815C411.48 16.5497 411.88 16.983 412.392 17.2812C412.903 17.5748 413.497 17.7216 414.174 17.7216C414.615 17.7216 415.012 17.66 415.368 17.5369C415.727 17.4091 416.038 17.2197 416.298 16.9688C416.558 16.7131 416.76 16.3958 416.902 16.017L418.521 16.4716C418.35 17.0208 418.064 17.5038 417.662 17.9205C417.259 18.3324 416.762 18.6544 416.17 18.8864C415.578 19.1136 414.913 19.2273 414.174 19.2273Z" fill="#F7DF1E"/>
<line x1="550.5" y1="106.027" x2="550.5" y2="31.0002" stroke="#F7DF1E" stroke-width="3" stroke-dasharray="10 10"/>
<circle cx="550.5" cy="106.5" r="17.3261" transform="rotate(-179.422 550.5 106.5)" fill="#F7DF1E"/>
<circle cx="415.5" cy="105.5" r="7.42547" transform="rotate(-179.422 415.5 105.5)" fill="#F7DF1E"/>
<line x1="466.501" y1="106.05" x2="465.501" y2="76.05" stroke="white" stroke-width="3" stroke-dasharray="10 10"/>
<circle cx="490.5" cy="105.5" r="7.42547" transform="rotate(-179.422 490.5 105.5)" fill="#F7DF1E"/>
<circle cx="490.5" cy="105.5" r="7.42547" transform="rotate(-179.422 490.5 105.5)" fill="#F7DF1E"/>
<circle cx="515.5" cy="105.5" r="7.42547" transform="rotate(-179.422 515.5 105.5)" fill="#F7DF1E"/>
<circle cx="515.5" cy="105.5" r="7.42547" transform="rotate(-179.422 515.5 105.5)" fill="#F7DF1E"/>
<circle cx="440.5" cy="105.5" r="7.42547" transform="rotate(-179.422 440.5 105.5)" fill="#F7DF1E"/>
<circle cx="440.5" cy="105.5" r="7.42547" transform="rotate(-179.422 440.5 105.5)" fill="#F7DF1E"/>
<circle cx="585.5" cy="105.5" r="7.42547" transform="rotate(-179.422 585.5 105.5)" fill="#F7DF1E"/>
<circle cx="610.5" cy="105.5" r="7.42547" transform="rotate(-179.422 610.5 105.5)" fill="#F7DF1E"/>
<circle cx="610.5" cy="105.5" r="7.42547" transform="rotate(-179.422 610.5 105.5)" fill="#F7DF1E"/>
<circle cx="635.5" cy="105.5" r="7.42547" transform="rotate(-179.422 635.5 105.5)" fill="#F7DF1E"/>
<circle cx="635.5" cy="105.5" r="7.42547" transform="rotate(-179.422 635.5 105.5)" fill="#F7DF1E"/>
<circle cx="660.5" cy="105.5" r="7.42547" transform="rotate(-179.422 660.5 105.5)" fill="#F7DF1E"/>
<circle cx="660.5" cy="105.5" r="7.42547" transform="rotate(-179.422 660.5 105.5)" fill="#F7DF1E"/>
<circle cx="685.5" cy="105.5" r="7.42547" transform="rotate(-179.422 685.5 105.5)" fill="#F7DF1E"/>
<circle cx="685.5" cy="105.5" r="7.42547" transform="rotate(-179.422 685.5 105.5)" fill="#F7DF1E"/>
<path d="M528.679 4.45455H530.441V14.8523C530.441 15.7803 530.27 16.5687 529.929 17.2173C529.588 17.866 529.108 18.3584 528.487 18.6946C527.867 19.0308 527.136 19.1989 526.293 19.1989C525.497 19.1989 524.789 19.0545 524.169 18.7656C523.549 18.4721 523.061 18.0554 522.706 17.5156C522.351 16.9759 522.173 16.3343 522.173 15.5909H523.906C523.906 16.0028 524.008 16.3627 524.212 16.6705C524.42 16.9735 524.704 17.2102 525.064 17.3807C525.424 17.5511 525.834 17.6364 526.293 17.6364C526.799 17.6364 527.23 17.5298 527.585 17.3168C527.941 17.1037 528.21 16.7912 528.395 16.3793C528.584 15.9626 528.679 15.4536 528.679 14.8523V4.45455ZM540.618 14.5398V8.09091H542.294V19H540.618V17.1534H540.504C540.249 17.7074 539.851 18.1785 539.311 18.5668C538.771 18.9503 538.09 19.142 537.266 19.142C536.584 19.142 535.978 18.9929 535.448 18.6946C534.917 18.3916 534.501 17.937 534.198 17.331C533.895 16.7202 533.743 15.9508 533.743 15.0227V8.09091H535.419V14.9091C535.419 15.7045 535.642 16.339 536.087 16.8125C536.537 17.286 537.11 17.5227 537.806 17.5227C538.222 17.5227 538.646 17.4162 539.077 17.2031C539.512 16.9901 539.877 16.6634 540.171 16.223C540.469 15.7827 540.618 15.2216 540.618 14.5398ZM547.04 12.4375V19H545.364V8.09091H546.983V9.79545H547.126C547.381 9.24148 547.769 8.7964 548.29 8.46023C548.811 8.11932 549.483 7.94886 550.307 7.94886C551.046 7.94886 551.692 8.10038 552.246 8.40341C552.8 8.7017 553.231 9.15625 553.539 9.76705C553.847 10.3731 554.001 11.1402 554.001 12.0682V19H552.324V12.1818C552.324 11.3248 552.102 10.6572 551.657 10.179C551.212 9.69602 550.601 9.45455 549.824 9.45455C549.289 9.45455 548.811 9.57055 548.39 9.80256C547.973 10.0346 547.644 10.3731 547.403 10.8182C547.161 11.2633 547.04 11.803 547.04 12.4375ZM557.063 19V8.09091H558.74V19H557.063ZM557.916 6.27273C557.589 6.27273 557.307 6.16146 557.07 5.93892C556.838 5.71638 556.722 5.44886 556.722 5.13636C556.722 4.82386 556.838 4.55634 557.07 4.33381C557.307 4.11127 557.589 4 557.916 4C558.242 4 558.522 4.11127 558.754 4.33381C558.99 4.55634 559.109 4.82386 559.109 5.13636C559.109 5.44886 558.99 5.71638 558.754 5.93892C558.522 6.16146 558.242 6.27273 557.916 6.27273ZM566.241 19.2273C565.256 19.2273 564.392 18.9929 563.649 18.5241C562.91 18.0554 562.333 17.3996 561.916 16.5568C561.504 15.714 561.298 14.7292 561.298 13.6023C561.298 12.4659 561.504 11.474 561.916 10.6264C562.333 9.77888 562.91 9.12074 563.649 8.65199C564.392 8.18324 565.256 7.94886 566.241 7.94886C567.226 7.94886 568.088 8.18324 568.827 8.65199C569.57 9.12074 570.148 9.77888 570.559 10.6264C570.976 11.474 571.184 12.4659 571.184 13.6023C571.184 14.7292 570.976 15.714 570.559 16.5568C570.148 17.3996 569.57 18.0554 568.827 18.5241C568.088 18.9929 567.226 19.2273 566.241 19.2273ZM566.241 17.7216C566.989 17.7216 567.605 17.5298 568.088 17.1463C568.571 16.7628 568.928 16.2585 569.16 15.6335C569.392 15.0085 569.508 14.3314 569.508 13.6023C569.508 12.8731 569.392 12.1937 569.16 11.5639C568.928 10.9342 568.571 10.4252 568.088 10.0369C567.605 9.64867 566.989 9.45455 566.241 9.45455C565.493 9.45455 564.878 9.64867 564.395 10.0369C563.912 10.4252 563.554 10.9342 563.322 11.5639C563.09 12.1937 562.974 12.8731 562.974 13.6023C562.974 14.3314 563.09 15.0085 563.322 15.6335C563.554 16.2585 563.912 16.7628 564.395 17.1463C564.878 17.5298 565.493 17.7216 566.241 17.7216ZM573.743 19V8.09091H575.362V9.73864H575.476C575.675 9.19886 576.035 8.76089 576.556 8.42472C577.076 8.08854 577.664 7.92045 578.317 7.92045C578.44 7.92045 578.594 7.92282 578.779 7.92756C578.963 7.93229 579.103 7.93939 579.198 7.94886V9.65341C579.141 9.6392 579.011 9.6179 578.807 9.58949C578.608 9.55634 578.397 9.53977 578.175 9.53977C577.645 9.53977 577.171 9.65104 576.754 9.87358C576.343 10.0914 576.016 10.3944 575.774 10.7827C575.538 11.1662 575.419 11.6042 575.419 12.0966V19H573.743Z" fill="#F7DF1E"/>
<path d="M456.292 70V56H463.472V58.4H459.032V61.74H462.992V64.06H459.032V67.68H463.552V70H456.292ZM468.561 67.68H470.241C470.534 67.36 470.741 67.04 470.861 66.72C470.994 66.3867 471.061 65.9 471.061 65.26V56H473.801V64.26C473.801 64.94 473.781 65.4733 473.741 65.86C473.714 66.2333 473.634 66.6933 473.501 67.24C473.274 68.2133 472.647 69.1333 471.621 70H467.181C466.154 69.16 465.527 68.24 465.301 67.24C465.101 66.4267 465.001 65.4333 465.001 64.26V56H467.741V65.26C467.741 65.9 467.801 66.3867 467.921 66.72C468.054 67.04 468.267 67.36 468.561 67.68Z" fill="white"/>
<path d="M719.5 105.504L704.493 96.8549L704.506 114.175L719.5 105.504ZM75.0011 107.484L706.001 107.014L705.999 104.014L74.9989 104.484L75.0011 107.484Z" fill="#F7DF1E"/>
<circle cx="465.5" cy="105.501" r="7.42547" transform="rotate(-179.422 465.5 105.501)" fill="white"/>
</svg>
