<svg width="141" height="179" viewBox="0 0 141 179" fill="none" xmlns="http://www.w3.org/2000/svg">
<path d="M21.144 138V48.4H57.624C61.8053 49.936 65.5173 52.624 68.76 56.464C72.0027 60.304 73.624 64.9547 73.624 70.416C73.624 80.0587 70.4667 86.8 64.152 90.64V91.152C72.0027 95.504 75.928 102.331 75.928 111.632C75.928 122.299 70.5093 131.088 59.672 138H21.144ZM38.552 85.392H51.224C54.9787 83.088 56.856 79.5893 56.856 74.896C56.856 70.2027 55.1067 66.4907 51.608 63.76H38.552V85.392ZM38.552 123.152H51.736C53.272 122.043 54.6373 120.293 55.832 117.904C57.112 115.515 57.752 113.125 57.752 110.736C57.752 108.347 57.24 106.171 56.216 104.208C55.192 102.245 53.912 100.795 52.376 99.856H38.552V123.152Z" fill="white"/>
<path d="M21.144 138V48.4H67.096V63.76H38.68V85.136H64.024V99.984H38.68V123.152H67.608V138H21.144Z" fill="white"/>
<path d="M94.288 138L91.6 123.792H71.376L68.688 138H51.28L68.56 48.4H95.056L111.44 138H94.288ZM81.232 65.04L76.24 94.864L73.424 110.096H89.424L86.48 94.864L81.488 65.04H81.232Z" fill="white"/>
<path d="M20.608 63.76H1.28V48.4H57.344V63.76H38.016V138H20.608V63.76Z" fill="white"/>
<path d="M84.144 48.4H118.192C123.568 50.192 128.133 53.52 131.888 58.384C135.728 63.1627 137.648 69.0507 137.648 76.048C137.648 87.4827 133.125 95.888 124.08 101.264L137.008 138H119.088L108.208 105.36H101.424V138H84.144V48.4ZM101.424 63.76V91.024H112.432C113.883 90.6827 115.461 89.232 117.168 86.672C118.96 84.0267 119.856 80.9547 119.856 77.456C119.856 73.9573 119.088 70.8853 117.552 68.24C116.101 65.5947 114.651 64.1013 113.2 63.76H101.424Z" fill="white"/>
<path d="M103.343 63.376L73.007 123.152H103.471V138H54.447V123.408L84.655 63.76H54.447V48.4H103.343V63.376Z" fill="white"/>
<path d="M16.144 138V48.4H33.68V138H16.144Z" fill="white"/>
</svg>
