<svg width="21" height="20" viewBox="0 0 21 20" fill="none" xmlns="http://www.w3.org/2000/svg">
<path d="M18.9061 0H2.79497C1.72552 0 0.850525 0.875 0.850525 1.94444V18.0556C0.850525 19.125 1.72552 20 2.79497 20H18.9061C19.9755 20 20.8505 19.125 20.8505 18.0556V1.94444C20.8505 0.875 19.9755 0 18.9061 0ZM15.4936 16.7144C14.8494 17.0178 14.2661 17.2314 13.7441 17.3533C13.2219 17.4756 12.6572 17.5364 12.0502 17.5364C11.3616 17.5364 10.7525 17.4494 10.2227 17.2756C9.6933 17.1014 9.24164 16.8528 8.86775 16.5317C8.49358 16.2092 8.23441 15.8667 8.09025 15.5036C7.9458 15.1411 7.87358 14.6153 7.87358 13.9264V8.63945H6.20747V6.50667C6.79941 6.31417 7.30719 6.03861 7.72914 5.67917C8.15129 5.3203 8.49694 4.88018 8.74553 4.385C9.00136 3.88194 9.17691 3.24139 9.27303 2.46389H11.4169V6.27361H14.9939V8.63972H11.4169V12.5053C11.4169 13.3789 11.463 13.9397 11.5558 14.1883C11.648 14.4364 11.8205 14.6344 12.0719 14.7825C12.4052 14.9822 12.7866 15.0825 13.2161 15.0825C13.9789 15.0825 14.738 14.8342 15.4933 14.3378V16.7144H15.4936Z" fill="white"/>
</svg>
