<svg width="21" height="20" viewBox="0 0 21 20" fill="none" xmlns="http://www.w3.org/2000/svg">
<path d="M19.4059 4.62488C16.4059 -0.000152887 10.2809 -1.37516 5.53083 1.49986C0.905792 4.37488 -0.59422 10.6249 2.4058 15.25L2.65581 15.625L1.6558 19.375L5.40583 18.375L5.78083 18.625C7.40584 19.5 9.15585 20 10.9059 20C12.7809 20 14.6559 19.5 16.2809 18.5C20.9059 15.5 22.281 9.37492 19.4059 4.62488V4.62488ZM16.7809 14.25C16.2809 15 15.6559 15.5 14.7809 15.625C14.2809 15.625 13.6559 15.875 11.1559 14.875C9.03085 13.875 7.28084 12.2499 6.03083 10.3749C5.28083 9.49992 4.90582 8.37491 4.78082 7.2499C4.78082 6.2499 5.15582 5.37489 5.78083 4.74988C6.03083 4.49988 6.28083 4.37488 6.53083 4.37488H7.15584C7.40584 4.37488 7.65584 4.37488 7.78084 4.87488C8.03085 5.49989 8.65585 6.9999 8.65585 7.1249C8.78085 7.2499 8.78085 7.49991 8.65585 7.62491C8.78085 7.87491 8.65585 8.12491 8.53085 8.24991C8.40585 8.37491 8.28085 8.62491 8.15585 8.74991C7.90585 8.87492 7.78084 9.12492 7.90585 9.37492C8.40585 10.1249 9.03085 10.8749 9.65586 11.4999C10.4059 12.1249 11.1559 12.6249 12.0309 12.9999C12.2809 13.1249 12.5309 13.1249 12.6559 12.8749C12.7809 12.6249 13.4059 11.9999 13.6559 11.7499C13.9059 11.4999 14.0309 11.4999 14.2809 11.6249L16.2809 12.6249C16.5309 12.7499 16.7809 12.8749 16.9059 12.9999C17.0309 13.3749 17.0309 13.875 16.7809 14.25V14.25Z" fill="white"/>
</svg>
