<svg width="21" height="20" viewBox="0 0 21 20" fill="none" xmlns="http://www.w3.org/2000/svg">
<path d="M9.51441 15.6642C9.32108 15.9375 9.13803 16.0722 8.96303 16.0722C8.84636 16.0722 8.77997 16.0039 8.75886 15.8683C8.75053 15.8403 8.75053 15.7339 8.75053 15.5295V11.985H7.87886V15.7917C7.87886 16.132 7.90775 16.3614 7.9558 16.5072C8.04275 16.7511 8.23664 16.8653 8.51775 16.8653C8.8383 16.8653 9.16775 16.6717 9.51414 16.2739V16.7992H10.3872V11.9853H9.51441V15.6642V15.6642ZM4.7108 11.2478H5.73692V16.7992H6.70692V11.2478H7.75192V10.3383H4.7108V11.2478ZM10.6508 7.0389C10.935 7.0389 11.0711 6.8139 11.0711 6.36362V4.31696C11.0711 3.86723 10.935 3.64307 10.6508 3.64307C10.3664 3.64307 10.23 3.86723 10.23 4.31696V6.36362C10.2302 6.81362 10.3664 7.0389 10.6508 7.0389ZM12.9155 11.9264C12.595 11.9264 12.2961 12.102 12.0147 12.4486V10.3383H11.1422V16.7992H12.0147V16.332C12.3058 16.6928 12.6055 16.8653 12.9155 16.8653C13.263 16.8653 13.4964 16.6825 13.613 16.3245C13.6711 16.1203 13.7008 15.7997 13.7008 15.3545V13.4375C13.7008 12.982 13.6711 12.6636 13.613 12.47C13.4961 12.1092 13.263 11.9264 12.9155 11.9264ZM12.8286 15.4228C12.8286 15.8575 12.7005 16.072 12.4491 16.072C12.3058 16.072 12.1602 16.0036 12.0144 15.8578V12.9233C12.1602 12.7797 12.3055 12.7114 12.4491 12.7114C12.7008 12.7114 12.8286 12.9342 12.8286 13.3683V15.4228ZM15.6936 11.9264C15.2486 11.9264 14.9008 12.0906 14.6491 12.4203C14.4636 12.6633 14.3794 13.0395 14.3794 13.5536V15.2403C14.3794 15.7514 14.4744 16.1317 14.6597 16.372C14.9116 16.7006 15.2589 16.865 15.7155 16.865C16.1711 16.865 16.5286 16.6925 16.7702 16.3436C16.8768 16.1869 16.9464 16.0081 16.9739 15.8206C16.9816 15.7331 16.9925 15.5392 16.9925 15.2586V15.1308H16.1022C16.1022 15.4808 16.0914 15.6745 16.0833 15.722C16.0336 15.955 15.908 16.0717 15.6936 16.0717C15.3941 16.0717 15.2486 15.8495 15.2486 15.4039V14.5506H16.9927V13.5533C16.9927 13.0389 16.9052 12.6631 16.7227 12.42C16.4786 12.0903 16.1314 11.9264 15.6936 11.9264V11.9264ZM16.1205 13.8247H15.2486V13.3795C15.2486 12.9345 15.3941 12.7117 15.6858 12.7117C15.9744 12.7117 16.1205 12.9345 16.1205 13.3795V13.8247V13.8247Z" fill="white"/>
<path d="M18.9061 0H2.79497C1.72552 0 0.850525 0.875 0.850525 1.94444V18.0556C0.850525 19.125 1.72552 20 2.79497 20H18.9061C19.9755 20 20.8505 19.125 20.8505 18.0556V1.94444C20.8505 0.875 19.9755 0 18.9061 0ZM12.6783 2.90833H13.5569V6.48944C13.5569 6.69667 13.5569 6.80417 13.5677 6.8325C13.5872 6.96917 13.6561 7.03889 13.7744 7.03889C13.9505 7.03889 14.1358 6.90222 14.3311 6.62611V2.90833H15.2127V7.77222H14.3311V7.24167C13.9802 7.64417 13.6455 7.83972 13.3241 7.83972C13.0402 7.83972 12.8444 7.72444 12.7564 7.47778C12.7077 7.33083 12.6783 7.09778 12.6783 6.75445V2.90833V2.90833ZM9.34858 4.49389C9.34858 3.97417 9.43719 3.59389 9.62469 3.34806C9.86858 3.01583 10.2119 2.84944 10.6508 2.84944C11.0925 2.84944 11.4352 3.01583 11.6794 3.34806C11.8639 3.59389 11.953 3.97417 11.953 4.49389V6.19806C11.953 6.71472 11.8641 7.09806 11.6794 7.34222C11.4352 7.67361 11.0927 7.84 10.6508 7.84C10.2116 7.84 9.8683 7.67361 9.62469 7.34222C9.43719 7.09806 9.34858 6.71472 9.34858 6.19806V4.49389ZM6.99136 1.245L7.68552 3.80806L8.35191 1.245H9.34025L8.16469 5.12889V7.77222H7.18691V5.12889C7.09858 4.66 6.90303 3.97389 6.58969 3.06361C6.38358 2.45806 6.16886 1.84972 5.96302 1.245H6.99136ZM17.8152 17.0883C17.6391 17.8558 17.0108 18.4219 16.2552 18.5061C14.4652 18.7061 12.6539 18.7072 10.8505 18.7061C9.04691 18.7072 7.23552 18.7061 5.4458 18.5061C4.68997 18.4217 4.06275 17.8556 3.88636 17.0883C3.63497 15.995 3.63497 14.8017 3.63497 13.6767C3.63497 12.5506 3.63775 11.3581 3.88941 10.2644C4.06553 9.49722 4.69303 8.93139 5.44886 8.84694C7.23858 8.64639 9.04997 8.64583 10.8536 8.64639C12.6569 8.64583 14.4683 8.64639 16.2583 8.84694C17.0136 8.93139 17.6416 9.49722 17.818 10.2644C18.0694 11.3583 18.068 12.5506 18.068 13.6767C18.0683 14.8017 18.0669 15.995 17.8152 17.0883V17.0883Z" fill="white"/>
</svg>
